<?xml version="1.0" encoding="UTF-8" standalone="no"?>
<!DOCTYPE svg PUBLIC "-//W3C//DTD SVG 1.1//EN" "http://www.w3.org/Graphics/SVG/1.1/DTD/svg11.dtd">
<!-- Generiert durch Microsoft Visio, SVG Export repo-pr.svg Page-1 -->
<svg xmlns="http://www.w3.org/2000/svg" xmlns:xlink="http://www.w3.org/1999/xlink" xmlns:ev="http://www.w3.org/2001/xml-events"
		xmlns:v="http://schemas.microsoft.com/visio/2003/SVGExtensions/" width="11.6048in" height="6.07579in"
		viewBox="0 0 835.549 437.457" xml:space="preserve" color-interpolation-filters="sRGB" class="st20">
	<v:documentProperties v:langID="1031" v:metric="true" v:viewMarkup="false">
		<v:userDefs>
			<v:ud v:nameU="msvNoAutoConnect" v:val="VT0(0):26"/>
			<v:ud v:nameU="visV14CFF" v:prompt="" v:val="VT0(1):26"/>
			<v:ud v:nameU="visFlowchartType" v:prompt="" v:val="VT4(CrossFunctional)"/>
		</v:userDefs>
	</v:documentProperties>

	<style type="text/css">
	<![CDATA[
		.st1 {fill:none;stroke:none;stroke-width:2}
		.st2 {fill:#ededed;stroke:#90aadb;stroke-dasharray:6,6;stroke-width:2}
		.st3 {fill:#000000;stroke:#c7c8c8;stroke-width:0.25}
		.st4 {fill:#ededed;stroke:none;stroke-width:0.25}
		.st5 {fill:#000000;font-family:Montserrat;font-size:1.5em}
		.st6 {fill:#c9c9c9;stroke:none;stroke-width:0.25}
		.st7 {fill:#90aadb;stroke:none;stroke-width:2}
		.st8 {fill:#ffc000;stroke:none;stroke-width:2}
		.st9 {fill:#ed7d31;stroke:none;stroke-width:2}
		.st10 {stroke:#000000;stroke-width:2.75}
		.st11 {fill:#000000;stroke:none;stroke-width:0.25}
		.st12 {fill:#000000;stroke:#ededed;stroke-width:4.5}
		.st13 {fill:none;stroke:#ed7d31;stroke-dasharray:6,6;stroke-width:2}
		.st14 {fill:#a8d08d;stroke:none;stroke-width:2}
		.st15 {fill:#ededed;stroke:#ffc000;stroke-dasharray:6,6;stroke-width:2}
		.st16 {fill:none;stroke:#a8d08d;stroke-dasharray:6,6;stroke-width:2}
		.st17 {marker-end:url(#mrkr13-89);stroke:#a8d08d;stroke-linecap:round;stroke-linejoin:round;stroke-width:2}
		.st18 {fill:#a8d08d;fill-opacity:1;stroke:#a8d08d;stroke-opacity:1;stroke-width:0.44247787610619}
		.st19 {stroke:#000000;stroke-width:2.5}
		.st20 {fill:none;fill-rule:evenodd;font-size:12px;overflow:visible;stroke-linecap:square;stroke-miterlimit:3}
	]]>
	</style>

	<defs id="Markers">
		<g id="lend13">
			<path d="M 3 1 L 0 0 L 3 -1 L 3 1 " style="stroke:none"/>
		</g>
		<marker id="mrkr13-89" class="st18" v:arrowType="13" v:arrowSize="2" v:setback="6.78" refX="-6.78" orient="auto"
				markerUnits="strokeWidth" overflow="visible">
			<use xlink:href="#lend13" transform="scale(-2.26,-2.26) "/>
		</marker>
	</defs>
	<g v:mID="0" v:index="1" v:groupContext="foregroundPage">
		<v:userDefs>
			<v:ud v:nameU="msvThemeOrder" v:val="VT0(0):26"/>
		</v:userDefs>
		<title>Zeichenblatt-1</title>
		<v:pageProperties v:drawingScale="0.0393701" v:pageScale="0.0393701" v:drawingUnits="24" v:shadowOffsetX="8.50394"
				v:shadowOffsetY="-8.50394"/>
		<v:layer v:name="Verbinder" v:index="0"/>
		<g id="group37-1" transform="translate(276.709,-186.481)" v:mID="37" v:groupContext="group">
			<title>Tabelle.37</title>
		</g>
		<g id="shape52-2" v:mID="52" v:groupContext="shape" transform="translate(58.4409,-172.591)">
			<title>Tabelle.52</title>
			<rect x="0" y="390.685" width="676.898" height="46.7717" class="st1"/>
		</g>
		<g id="shape66-4" v:mID="66" v:groupContext="shape" transform="translate(58.4409,-110.937)">
			<title>Tabelle.66</title>
			<rect x="0" y="390.685" width="676.898" height="46.7717" class="st1"/>
		</g>
		<g id="shape74-6" v:mID="74" v:groupContext="shape" transform="translate(32.5892,-75.9368)">
			<title>Rechteck.74</title>
			<v:userDefs>
				<v:ud v:nameU="visVersion" v:val="VT0(15):26"/>
			</v:userDefs>
			<path d="M0 437.46 L732.52 437.46 L732.52 304.11 L0 304.11 L0 437.46 Z" class="st2"/>
		</g>
		<g id="group75-8" transform="translate(274.709,-143.095)" v:mID="75" v:groupContext="group">
			<title>Tabelle.75</title>
		</g>
		<g id="shape76-9" v:mID="76" v:groupContext="shape" transform="translate(150.819,-151.173)">
			<title>Rechteck.76</title>
			<v:userDefs>
				<v:ud v:nameU="visVersion" v:val="VT0(15):26"/>
			</v:userDefs>
			<rect x="0" y="434.623" width="548.504" height="2.83465" class="st3"/>
		</g>
		<g id="shape80-11" v:mID="80" v:groupContext="shape" transform="translate(44.5197,-143.094)">
			<title>Rechteck.80</title>
			<desc>Master</desc>
			<v:userDefs>
				<v:ud v:nameU="visVersion" v:val="VT0(15):26"/>
			</v:userDefs>
			<v:textBlock v:margins="rect(4,4,4,4)" v:tabSpace="42.5197"/>
			<v:textRect cx="41.3983" cy="427.961" width="82.8" height="18.9921"/>
			<rect x="0" y="418.465" width="82.7967" height="18.9921" class="st4"/>
			<text x="11.07" y="433.36" class="st5" v:langID="1031"><v:paragraph v:horizAlign="1"/><v:tabList/>Master</text>		</g>
		<g id="shape81-14" v:mID="81" v:groupContext="shape" transform="translate(56.4409,-129.205)">
			<title>Tabelle.81</title>
			<rect x="0" y="390.685" width="676.898" height="46.7717" class="st1"/>
		</g>
		<g id="shape82-16" v:mID="82" v:groupContext="shape" transform="translate(32.3465,-180.937)">
			<title>Tabelle.82</title>
			<desc>YourUsername/SpongePowered</desc>
			<v:textBlock v:margins="rect(2,2,2,2)" v:tabSpace="42.5197"/>
			<v:textRect cx="366.261" cy="423.284" width="732.53" height="28.3464"/>
			<rect x="0" y="409.111" width="732.522" height="28.3464" class="st6"/>
			<text x="222.29" y="428.68" class="st5" v:langID="1031"><v:paragraph v:horizAlign="1"/><v:tabList/>YourUsername/SpongePowered</text>		</g>
		<g id="shape88-19" v:mID="88" v:groupContext="shape" transform="translate(56.4409,-67.5512)">
			<title>Tabelle.88</title>
			<rect x="0" y="390.685" width="676.898" height="46.7717" class="st1"/>
		</g>
		<g id="shape91-21" v:mID="91" v:groupContext="shape" transform="translate(30.3465,-30.3465)">
			<title>Rechteck.91</title>
			<desc>Your Fork</desc>
			<v:userDefs>
				<v:ud v:nameU="visVersion" v:val="VT0(15):26"/>
			</v:userDefs>
			<v:textBlock v:margins="rect(4,4,4,4)" v:tabSpace="42.5197"/>
			<v:textRect cx="56.6929" cy="423.284" width="113.39" height="28.3464"/>
			<rect x="0" y="409.111" width="113.386" height="28.3464" class="st7"/>
			<text x="13.89" y="428.68" class="st5" v:langID="1031"><v:paragraph v:horizAlign="1"/><v:tabList/>Your Fork</text>		</g>
		<g id="shape92-24" v:mID="92" v:groupContext="shape" transform="translate(30.3465,-223.457)">
			<title>Rechteck.92</title>
			<desc>Our Repository</desc>
			<v:userDefs>
				<v:ud v:nameU="visVersion" v:val="VT0(15):26"/>
			</v:userDefs>
			<v:textBlock v:margins="rect(4,4,4,4)" v:tabSpace="42.5197"/>
			<v:textRect cx="85.0394" cy="423.284" width="170.08" height="28.3464"/>
			<rect x="0" y="409.111" width="170.079" height="28.3464" class="st8"/>
			<text x="18.06" y="428.68" class="st5" v:langID="1031"><v:paragraph v:horizAlign="1"/><v:tabList/>Our Repository</text>		</g>
		<g id="shape116-27" v:mID="116" v:groupContext="shape" transform="translate(43.811,-101.559)">
			<title>Rechteck.116</title>
			<desc>Feature/YourFeature</desc>
			<v:userDefs>
				<v:ud v:nameU="visVersion" v:val="VT0(15):26"/>
			</v:userDefs>
			<v:textBlock v:margins="rect(4,4,4,4)" v:tabSpace="42.5197"/>
			<v:textRect cx="102.756" cy="427.961" width="205.52" height="18.9921"/>
			<rect x="0" y="418.465" width="205.512" height="18.9921" class="st4"/>
			<text x="10.76" y="433.36" class="st5" v:langID="1031"><v:paragraph v:horizAlign="1"/><v:tabList/>Feature/YourFeature</text>		</g>
		<g id="shape124-30" v:mID="124" v:groupContext="shape" transform="translate(154.362,-30.3465)">
			<title>Rechteck.124</title>
			<desc>Your Branch</desc>
			<v:userDefs>
				<v:ud v:nameU="visVersion" v:val="VT0(15):26"/>
			</v:userDefs>
			<v:textBlock v:margins="rect(4,4,4,4)" v:tabSpace="42.5197"/>
			<v:textRect cx="65.5512" cy="423.284" width="131.11" height="28.3464"/>
			<rect x="0" y="409.111" width="131.102" height="28.3464" class="st9"/>
			<text x="10.21" y="428.68" class="st5" v:langID="1031"><v:paragraph v:horizAlign="1"/><v:tabList/>Your Branch</text>		</g>
		<g id="shape119-33" v:mID="119" v:groupContext="shape" v:layerMember="0" transform="translate(150.819,-152.591)">
			<title>Dynamischer Verbinder.119</title>
			<path d="M0 437.46 L85.53 437.46 A20.7678 20.7678 0 0 1 106.3 458.22 L106.3 458.22 A20.7678 20.7678 -180 0 0 127.07 478.99
						 L191.34 478.99" class="st10"/>
		</g>
		<g id="shape131-36" v:mID="131" v:groupContext="shape" transform="translate(342.157,-109.638)">
			<title>Rechteck.131</title>
			<v:userDefs>
				<v:ud v:nameU="visVersion" v:val="VT0(15):26"/>
			</v:userDefs>
			<rect x="0" y="434.623" width="358.583" height="2.83465" class="st11"/>
		</g>
		<g id="shape122-38" v:mID="122" v:groupContext="shape" transform="translate(450.219,-101.559)">
			<title>Kreis.122</title>
			<v:userDefs>
				<v:ud v:nameU="visVersion" v:val="VT0(15):26"/>
			</v:userDefs>
			<path d="M0 427.96 A9.49606 9.49606 0 1 1 18.99 427.96 A9.49606 9.49606 0 0 1 0 427.96 Z" class="st12"/>
		</g>
		<g id="shape121-40" v:mID="121" v:groupContext="shape" transform="translate(402.879,-101.559)">
			<title>Kreis.121</title>
			<v:userDefs>
				<v:ud v:nameU="visVersion" v:val="VT0(15):26"/>
			</v:userDefs>
			<path d="M0 427.96 A9.49606 9.49606 0 1 1 18.99 427.96 A9.49606 9.49606 0 0 1 0 427.96 Z" class="st12"/>
		</g>
		<g id="shape120-42" v:mID="120" v:groupContext="shape" transform="translate(353.533,-101.559)">
			<title>Kreis.120</title>
			<v:userDefs>
				<v:ud v:nameU="visVersion" v:val="VT0(15):26"/>
			</v:userDefs>
			<path d="M0 427.96 A9.49606 9.49606 0 1 1 18.99 427.96 A9.49606 9.49606 0 0 1 0 427.96 Z" class="st12"/>
		</g>
		<g id="shape77-44" v:mID="77" v:groupContext="shape" transform="translate(174.042,-143.094)">
			<title>Kreis.77</title>
			<v:userDefs>
				<v:ud v:nameU="visVersion" v:val="VT0(15):26"/>
			</v:userDefs>
			<path d="M0 427.96 A9.49606 9.49606 0 1 1 18.99 427.96 A9.49606 9.49606 0 0 1 0 427.96 Z" class="st12"/>
		</g>
		<g id="shape133-46" v:mID="133" v:groupContext="shape" transform="translate(43.811,-90.11)">
			<title>Rechteck.133</title>
			<v:userDefs>
				<v:ud v:nameU="visVersion" v:val="VT0(15):26"/>
			</v:userDefs>
			<path d="M0 437.46 L709.37 437.46 L709.37 395.95 L0 395.95 L0 437.46 Z" class="st13"/>
		</g>
		<g id="shape136-48" v:mID="136" v:groupContext="shape" transform="translate(212.598,-223.457)">
			<title>Rechteck.136</title>
			<desc>Pull Request</desc>
			<v:userDefs>
				<v:ud v:nameU="visVersion" v:val="VT0(15):26"/>
			</v:userDefs>
			<v:textBlock v:margins="rect(4,4,4,4)" v:tabSpace="42.5197"/>
			<v:textRect cx="77.8314" cy="423.284" width="155.67" height="28.3464"/>
			<rect x="0" y="409.111" width="155.663" height="28.3464" class="st14"/>
			<text x="21.27" y="428.68" class="st5" v:langID="1031"><v:paragraph v:horizAlign="1"/><v:tabList/>Pull Request</text>		</g>
		<g id="shape137-51" v:mID="137" v:groupContext="shape" transform="translate(32.5892,-265.976)">
			<title>Rechteck.137</title>
			<v:userDefs>
				<v:ud v:nameU="visVersion" v:val="VT0(15):26"/>
			</v:userDefs>
			<path d="M0 437.46 L732.52 437.46 L732.52 296.32 L0 296.32 L0 437.46 Z" class="st15"/>
		</g>
		<g id="shape154-53" v:mID="154" v:groupContext="shape" transform="translate(342.157,-299.677)">
			<title>Rechteck.154</title>
			<v:userDefs>
				<v:ud v:nameU="visVersion" v:val="VT0(15):26"/>
			</v:userDefs>
			<rect x="0" y="434.623" width="170.079" height="2.83465" class="st11"/>
		</g>
		<g id="group138-55" transform="translate(274.709,-340.922)" v:mID="138" v:groupContext="group">
			<title>Tabelle.138</title>
		</g>
		<g id="shape139-56" v:mID="139" v:groupContext="shape" transform="translate(150.819,-349)">
			<title>Rechteck.139</title>
			<v:userDefs>
				<v:ud v:nameU="visVersion" v:val="VT0(15):26"/>
			</v:userDefs>
			<rect x="0" y="434.623" width="548.504" height="2.83465" class="st3"/>
		</g>
		<g id="shape142-58" v:mID="142" v:groupContext="shape" transform="translate(44.5197,-340.922)">
			<title>Rechteck.142</title>
			<desc>Master</desc>
			<v:userDefs>
				<v:ud v:nameU="visVersion" v:val="VT0(15):26"/>
			</v:userDefs>
			<v:textBlock v:margins="rect(4,4,4,4)" v:tabSpace="42.5197"/>
			<v:textRect cx="41.3983" cy="427.961" width="82.8" height="18.9921"/>
			<rect x="0" y="418.465" width="82.7967" height="18.9921" class="st4"/>
			<text x="11.07" y="433.36" class="st5" v:langID="1031"><v:paragraph v:horizAlign="1"/><v:tabList/>Master</text>		</g>
		<g id="shape143-61" v:mID="143" v:groupContext="shape" transform="translate(56.4409,-327.032)">
			<title>Tabelle.143</title>
			<rect x="0" y="390.685" width="676.898" height="46.7717" class="st1"/>
		</g>
		<g id="shape144-63" v:mID="144" v:groupContext="shape" transform="translate(32.3465,-378.764)">
			<title>Tabelle.144</title>
			<desc>SpongePowered</desc>
			<v:textBlock v:margins="rect(2,2,2,2)" v:tabSpace="42.5197"/>
			<v:textRect cx="366.261" cy="423.284" width="732.53" height="28.3464"/>
			<rect x="0" y="409.111" width="732.522" height="28.3464" class="st6"/>
			<text x="291.91" y="428.68" class="st5" v:langID="1031"><v:paragraph v:horizAlign="1"/><v:tabList/>SpongePowered</text>		</g>
		<g id="shape147-66" v:mID="147" v:groupContext="shape" transform="translate(56.4409,-265.378)">
			<title>Tabelle.147</title>
			<rect x="0" y="390.685" width="676.898" height="46.7717" class="st1"/>
		</g>
		<g id="shape152-68" v:mID="152" v:groupContext="shape" transform="translate(43.811,-291.598)">
			<title>Rechteck.152</title>
			<desc>Feature/YourFeature</desc>
			<v:userDefs>
				<v:ud v:nameU="visVersion" v:val="VT0(15):26"/>
			</v:userDefs>
			<v:textBlock v:margins="rect(4,4,4,4)" v:tabSpace="42.5197"/>
			<v:textRect cx="102.756" cy="427.961" width="205.52" height="18.9921"/>
			<rect x="0" y="418.465" width="205.512" height="18.9921" class="st4"/>
			<text x="10.76" y="433.36" class="st5" v:langID="1031"><v:paragraph v:horizAlign="1"/><v:tabList/>Feature/YourFeature</text>		</g>
		<g id="shape153-71" v:mID="153" v:groupContext="shape" v:layerMember="0" transform="translate(150.819,-350.418)">
			<title>Dynamischer Verbinder.153</title>
			<path d="M0 437.46 L81.64 437.46 A24.6616 24.6616 0 0 1 106.3 462.12 L106.3 462.12 A24.6616 24.6616 -180 0 0 130.96 486.78
						 L191.34 486.78" class="st10"/>
		</g>
		<g id="shape155-74" v:mID="155" v:groupContext="shape" transform="translate(450.219,-291.598)">
			<title>Kreis.155</title>
			<v:userDefs>
				<v:ud v:nameU="visVersion" v:val="VT0(15):26"/>
			</v:userDefs>
			<path d="M0 427.96 A9.49606 9.49606 0 1 1 18.99 427.96 A9.49606 9.49606 0 0 1 0 427.96 Z" class="st12"/>
		</g>
		<g id="shape156-76" v:mID="156" v:groupContext="shape" transform="translate(402.879,-291.598)">
			<title>Kreis.156</title>
			<v:userDefs>
				<v:ud v:nameU="visVersion" v:val="VT0(15):26"/>
			</v:userDefs>
			<path d="M0 427.96 A9.49606 9.49606 0 1 1 18.99 427.96 A9.49606 9.49606 0 0 1 0 427.96 Z" class="st12"/>
		</g>
		<g id="shape157-78" v:mID="157" v:groupContext="shape" transform="translate(353.533,-291.598)">
			<title>Kreis.157</title>
			<v:userDefs>
				<v:ud v:nameU="visVersion" v:val="VT0(15):26"/>
			</v:userDefs>
			<path d="M0 427.96 A9.49606 9.49606 0 1 1 18.99 427.96 A9.49606 9.49606 0 0 1 0 427.96 Z" class="st12"/>
		</g>
		<g id="shape158-80" v:mID="158" v:groupContext="shape" transform="translate(174.042,-340.922)">
			<title>Kreis.158</title>
			<v:userDefs>
				<v:ud v:nameU="visVersion" v:val="VT0(15):26"/>
			</v:userDefs>
			<path d="M0 427.96 A9.49606 9.49606 0 1 1 18.99 427.96 A9.49606 9.49606 0 0 1 0 427.96 Z" class="st12"/>
		</g>
		<g id="shape159-82" v:mID="159" v:groupContext="shape" transform="translate(43.811,-280.15)">
			<title>Rechteck.159</title>
			<v:userDefs>
				<v:ud v:nameU="visVersion" v:val="VT0(15):26"/>
			</v:userDefs>
			<path d="M0 437.46 L709.37 437.46 L709.37 395.95 L0 395.95 L0 437.46 Z" class="st16"/>
		</g>
		<g id="shape160-84" v:mID="160" v:groupContext="shape" v:layerMember="0" transform="translate(746.094,-110.863)">
			<title>Dynamischer Verbinder</title>
			<path d="M7.09 437.46 L41.11 437.46 L41.11 247.42 L20.65 247.42" class="st17"/>
		</g>
		<g id="shape162-90" v:mID="162" v:groupContext="shape" v:layerMember="0" transform="translate(699.323,-350.418)">
			<title>Dynamischer Verbinder.162</title>
			<path d="M0 437.46 L-34.87 437.46 A24.6616 24.6616 -180 0 0 -59.53 462.12 L-59.53 462.12 A24.6616 24.6616 0 0 1 -84.19
						 486.78 L-187.09 486.78" class="st19"/>
		</g>
	</g>
</svg>
