<?xml version="1.0" encoding="UTF-8" standalone="no"?>
<!DOCTYPE svg PUBLIC "-//W3C//DTD SVG 1.1//EN" "http://www.w3.org/Graphics/SVG/1.1/DTD/svg11.dtd">
<!-- Generiert durch Microsoft Visio, SVG Export repo-fork.svg Page-1 -->
<svg xmlns="http://www.w3.org/2000/svg" xmlns:xlink="http://www.w3.org/1999/xlink" xmlns:ev="http://www.w3.org/2001/xml-events"
		xmlns:v="http://schemas.microsoft.com/visio/2003/SVGExtensions/" width="11.0447in" height="6.03401in"
		viewBox="0 0 795.215 434.449" xml:space="preserve" color-interpolation-filters="sRGB" class="st15">
	<v:documentProperties v:langID="1031" v:metric="true" v:viewMarkup="false">
		<v:userDefs>
			<v:ud v:nameU="msvNoAutoConnect" v:val="VT0(0):26"/>
			<v:ud v:nameU="visV14CFF" v:prompt="" v:val="VT0(1):26"/>
			<v:ud v:nameU="visFlowchartType" v:prompt="" v:val="VT4(CrossFunctional)"/>
		</v:userDefs>
	</v:documentProperties>

	<style type="text/css">
	<![CDATA[
		.st1 {fill:#ededed;stroke:#ffc000;stroke-dasharray:6,6;stroke-width:2}
		.st2 {fill:#000000;stroke:#c7c8c8;stroke-width:0.25}
		.st3 {fill:#ededed;stroke:none;stroke-width:0.25}
		.st4 {fill:#000000;font-family:Montserrat;font-size:1.5em}
		.st5 {fill:none;stroke:none;stroke-width:2}
		.st6 {fill:#c9c9c9;stroke:none;stroke-width:0.25}
		.st7 {stroke:#000000;stroke-width:2.75}
		.st8 {fill:#ededed;stroke:#90aadb;stroke-dasharray:6,6;stroke-width:2}
		.st9 {marker-end:url(#mrkr13-52);stroke:#9966ff;stroke-linecap:round;stroke-linejoin:round;stroke-width:2}
		.st10 {fill:#9966ff;fill-opacity:1;stroke:#9966ff;stroke-opacity:1;stroke-width:0.38167938931298}
		.st11 {fill:#90aadb;stroke:none;stroke-width:2}
		.st12 {fill:#ffc000;stroke:none;stroke-width:2}
		.st13 {fill:#9966ff;stroke:none;stroke-width:2}
		.st14 {fill:#000000;stroke:#ededed;stroke-width:4.5}
		.st15 {fill:none;fill-rule:evenodd;font-size:12px;overflow:visible;stroke-linecap:square;stroke-miterlimit:3}
	]]>
	</style>

	<defs id="Markers">
		<g id="lend13">
			<path d="M 3 1 L 0 0 L 3 -1 L 3 1 " style="stroke:none"/>
		</g>
		<marker id="mrkr13-52" class="st10" v:arrowType="13" v:arrowSize="3" v:setback="7.86" refX="-7.86" orient="auto"
				markerUnits="strokeWidth" overflow="visible">
			<use xlink:href="#lend13" transform="scale(-2.62,-2.62) "/>
		</marker>
	</defs>
	<g v:mID="0" v:index="1" v:groupContext="foregroundPage">
		<v:userDefs>
			<v:ud v:nameU="msvThemeOrder" v:val="VT0(0):26"/>
		</v:userDefs>
		<title>Zeichenblatt-1</title>
		<v:pageProperties v:drawingScale="0.0393701" v:pageScale="0.0393701" v:drawingUnits="24" v:shadowOffsetX="8.50394"
				v:shadowOffsetY="-8.50394"/>
		<v:layer v:name="Verbinder" v:index="0"/>
		<g id="shape25-1" v:mID="25" v:groupContext="shape" transform="translate(28.3465,-250.197)">
			<title>Rechteck.25</title>
			<v:userDefs>
				<v:ud v:nameU="visVersion" v:val="VT0(15):26"/>
			</v:userDefs>
			<path d="M0 434.45 L732.52 434.45 L732.52 278.54 L0 278.54 L0 434.45 Z" class="st1"/>
		</g>
		<g id="group37-3" transform="translate(270.709,-339.913)" v:mID="37" v:groupContext="group">
			<title>Tabelle.37</title>
		</g>
		<g id="shape23-4" v:mID="23" v:groupContext="shape" transform="translate(157.323,-347.992)">
			<title>Rechteck.23</title>
			<v:userDefs>
				<v:ud v:nameU="visVersion" v:val="VT0(15):26"/>
			</v:userDefs>
			<rect x="0" y="431.614" width="538" height="2.83465" class="st2"/>
		</g>
		<g id="shape42-6" v:mID="42" v:groupContext="shape" transform="translate(51.0236,-339.913)">
			<title>Rechteck</title>
			<desc>Master</desc>
			<v:userDefs>
				<v:ud v:nameU="visVersion" v:val="VT0(15):26"/>
			</v:userDefs>
			<v:textBlock v:margins="rect(4,4,4,4)" v:tabSpace="42.5197"/>
			<v:textRect cx="49.6063" cy="424.953" width="99.22" height="18.9921"/>
			<rect x="0" y="415.457" width="99.2126" height="18.9921" class="st3"/>
			<text x="19.28" y="430.35" class="st4" v:langID="1031"><v:paragraph v:horizAlign="1"/><v:tabList/>Master</text>		</g>
		<g id="shape52-9" v:mID="52" v:groupContext="shape" transform="translate(52.4409,-326.024)">
			<title>Tabelle.52</title>
			<rect x="0" y="387.677" width="676.898" height="46.7717" class="st5"/>
		</g>
		<g id="shape36-11" v:mID="36" v:groupContext="shape" transform="translate(28.3465,-377.756)">
			<title>Tabelle.36</title>
			<desc>SpongePowered</desc>
			<v:textBlock v:margins="rect(2,2,2,2)" v:tabSpace="42.5197"/>
			<v:textRect cx="366.261" cy="420.276" width="732.53" height="28.3464"/>
			<rect x="0" y="406.102" width="732.522" height="28.3464" class="st6"/>
			<text x="291.91" y="425.68" class="st4" v:langID="1031"><v:paragraph v:horizAlign="1"/><v:tabList/>SpongePowered</text>		</g>
		<g id="shape60-14" v:mID="60" v:groupContext="shape" transform="translate(277.795,-286.339)">
			<title>Rechteck.60</title>
			<v:userDefs>
				<v:ud v:nameU="visVersion" v:val="VT0(15):26"/>
			</v:userDefs>
			<rect x="0" y="431.614" width="414.693" height="2.83465" class="st2"/>
		</g>
		<g id="shape65-16" v:mID="65" v:groupContext="shape" transform="translate(63.7795,-278.26)">
			<title>Rechteck.65</title>
			<desc>Feature 1</desc>
			<v:userDefs>
				<v:ud v:nameU="visVersion" v:val="VT0(15):26"/>
			</v:userDefs>
			<v:textBlock v:margins="rect(4,4,4,4)" v:tabSpace="42.5197"/>
			<v:textRect cx="46.063" cy="424.953" width="92.13" height="18.9921"/>
			<rect x="0" y="415.457" width="92.126" height="18.9921" class="st3"/>
			<text x="6.14" y="430.35" class="st4" v:langID="1031"><v:paragraph v:horizAlign="1"/><v:tabList/>Feature 1</text>		</g>
		<g id="shape66-19" v:mID="66" v:groupContext="shape" transform="translate(52.4409,-264.37)">
			<title>Tabelle.66</title>
			<rect x="0" y="387.677" width="676.898" height="46.7717" class="st5"/>
		</g>
		<g id="shape71-21" v:mID="71" v:groupContext="shape" v:layerMember="0" transform="translate(150.236,-349.409)">
			<title>Dynamischer Verbinder</title>
			<path d="M0 434.45 L53.12 434.45 A28.3465 28.3465 0 0 1 81.46 462.8 L81.46 467.76 A28.3465 28.3465 -180 0 0 109.81 496.1
						 L542.25 496.1" class="st7"/>
		</g>
		<g id="shape74-24" v:mID="74" v:groupContext="shape" transform="translate(28.3465,-28.3465)">
			<title>Rechteck.74</title>
			<v:userDefs>
				<v:ud v:nameU="visVersion" v:val="VT0(15):26"/>
			</v:userDefs>
			<path d="M0 434.45 L732.52 434.45 L732.52 278.54 L0 278.54 L0 434.45 Z" class="st8"/>
		</g>
		<g id="group75-26" transform="translate(270.709,-118.063)" v:mID="75" v:groupContext="group">
			<title>Tabelle.75</title>
		</g>
		<g id="shape76-27" v:mID="76" v:groupContext="shape" transform="translate(157.323,-126.142)">
			<title>Rechteck.76</title>
			<v:userDefs>
				<v:ud v:nameU="visVersion" v:val="VT0(15):26"/>
			</v:userDefs>
			<rect x="0" y="431.614" width="538" height="2.83465" class="st2"/>
		</g>
		<g id="shape80-29" v:mID="80" v:groupContext="shape" transform="translate(51.0236,-118.063)">
			<title>Rechteck.80</title>
			<desc>Master</desc>
			<v:userDefs>
				<v:ud v:nameU="visVersion" v:val="VT0(15):26"/>
			</v:userDefs>
			<v:textBlock v:margins="rect(4,4,4,4)" v:tabSpace="42.5197"/>
			<v:textRect cx="49.6063" cy="424.953" width="99.22" height="18.9921"/>
			<rect x="0" y="415.457" width="99.2126" height="18.9921" class="st3"/>
			<text x="19.28" y="430.35" class="st4" v:langID="1031"><v:paragraph v:horizAlign="1"/><v:tabList/>Master</text>		</g>
		<g id="shape81-32" v:mID="81" v:groupContext="shape" transform="translate(52.4409,-104.173)">
			<title>Tabelle.81</title>
			<rect x="0" y="387.677" width="676.898" height="46.7717" class="st5"/>
		</g>
		<g id="shape82-34" v:mID="82" v:groupContext="shape" transform="translate(28.3465,-155.906)">
			<title>Tabelle.82</title>
			<desc>YourUsername/SpongePowered</desc>
			<v:textBlock v:margins="rect(2,2,2,2)" v:tabSpace="42.5197"/>
			<v:textRect cx="366.261" cy="420.276" width="732.53" height="28.3464"/>
			<rect x="0" y="406.102" width="732.522" height="28.3464" class="st6"/>
			<text x="222.29" y="425.68" class="st4" v:langID="1031"><v:paragraph v:horizAlign="1"/><v:tabList/>YourUsername/SpongePowered</text>		</g>
		<g id="shape83-37" v:mID="83" v:groupContext="shape" transform="translate(277.795,-64.4882)">
			<title>Rechteck.83</title>
			<v:userDefs>
				<v:ud v:nameU="visVersion" v:val="VT0(15):26"/>
			</v:userDefs>
			<rect x="0" y="431.614" width="414.693" height="2.83465" class="st2"/>
		</g>
		<g id="shape87-39" v:mID="87" v:groupContext="shape" transform="translate(63.7795,-56.4094)">
			<title>Rechteck.87</title>
			<desc>Feature 1</desc>
			<v:userDefs>
				<v:ud v:nameU="visVersion" v:val="VT0(15):26"/>
			</v:userDefs>
			<v:textBlock v:margins="rect(4,4,4,4)" v:tabSpace="42.5197"/>
			<v:textRect cx="46.063" cy="424.953" width="92.13" height="18.9921"/>
			<rect x="0" y="415.457" width="92.126" height="18.9921" class="st3"/>
			<text x="6.14" y="430.35" class="st4" v:langID="1031"><v:paragraph v:horizAlign="1"/><v:tabList/>Feature 1</text>		</g>
		<g id="shape88-42" v:mID="88" v:groupContext="shape" transform="translate(52.4409,-42.5197)">
			<title>Tabelle.88</title>
			<rect x="0" y="387.677" width="676.898" height="46.7717" class="st5"/>
		</g>
		<g id="shape89-44" v:mID="89" v:groupContext="shape" v:layerMember="0" transform="translate(150.236,-127.559)">
			<title>Dynamischer Verbinder.89</title>
			<path d="M0 434.45 L53.12 434.45 A28.3465 28.3465 0 0 1 81.46 462.8 L81.46 467.76 A28.3465 28.3465 -180 0 0 109.81 496.1
						 L542.25 496.1" class="st7"/>
		</g>
		<g id="shape90-47" v:mID="90" v:groupContext="shape" v:layerMember="0" transform="translate(387.521,-250.197)">
			<title>Dynamischer Verbinder.90</title>
			<path d="M7.09 434.45 L7.09 484.67" class="st9"/>
		</g>
		<g id="shape91-53" v:mID="91" v:groupContext="shape" transform="translate(192.263,-202.739)">
			<title>Rechteck.91</title>
			<desc>Your Fork</desc>
			<v:userDefs>
				<v:ud v:nameU="visVersion" v:val="VT0(15):26"/>
			</v:userDefs>
			<v:textBlock v:margins="rect(4,4,4,4)" v:tabSpace="42.5197"/>
			<v:textRect cx="56.6929" cy="420.276" width="113.39" height="28.3464"/>
			<rect x="0" y="406.102" width="113.386" height="28.3464" class="st11"/>
			<text x="13.89" y="425.68" class="st4" v:langID="1031"><v:paragraph v:horizAlign="1"/><v:tabList/>Your Fork</text>		</g>
		<g id="shape92-56" v:mID="92" v:groupContext="shape" transform="translate(28.3465,-202.739)">
			<title>Rechteck.92</title>
			<desc>Our Repository</desc>
			<v:userDefs>
				<v:ud v:nameU="visVersion" v:val="VT0(15):26"/>
			</v:userDefs>
			<v:textBlock v:margins="rect(4,4,4,4)" v:tabSpace="42.5197"/>
			<v:textRect cx="75.1181" cy="420.276" width="150.24" height="28.3464"/>
			<rect x="0" y="406.102" width="150.236" height="28.3464" class="st12"/>
			<text x="8.14" y="425.68" class="st4" v:langID="1031"><v:paragraph v:horizAlign="1"/><v:tabList/>Our Repository</text>		</g>
		<g id="shape95-59" v:mID="95" v:groupContext="shape" transform="translate(411.024,-202.739)">
			<title>Rechteck.95</title>
			<desc>Forking</desc>
			<v:userDefs>
				<v:ud v:nameU="visVersion" v:val="VT0(15):26"/>
			</v:userDefs>
			<v:textBlock v:margins="rect(4,4,4,4)" v:tabSpace="42.5197"/>
			<v:textRect cx="49.6063" cy="420.276" width="99.22" height="28.3464"/>
			<rect x="0" y="406.102" width="99.2126" height="28.3464" class="st13"/>
			<text x="15.62" y="425.68" class="st4" v:langID="1031"><v:paragraph v:horizAlign="1"/><v:tabList/>Forking</text>		</g>
		<g id="shape32-62" v:mID="32" v:groupContext="shape" transform="translate(170.042,-339.913)">
			<title>Kreis.32</title>
			<v:userDefs>
				<v:ud v:nameU="visVersion" v:val="VT0(15):26"/>
			</v:userDefs>
			<path d="M0 424.95 A9.49606 9.49606 0 1 1 18.99 424.95 A9.49606 9.49606 0 0 1 0 424.95 Z" class="st14"/>
		</g>
		<g id="shape62-64" v:mID="62" v:groupContext="shape" transform="translate(325.736,-278.26)">
			<title>Kreis.62</title>
			<v:userDefs>
				<v:ud v:nameU="visVersion" v:val="VT0(15):26"/>
			</v:userDefs>
			<path d="M0 424.95 A9.49606 9.49606 0 1 1 18.99 424.95 A9.49606 9.49606 0 0 1 0 424.95 Z" class="st14"/>
		</g>
		<g id="shape63-66" v:mID="63" v:groupContext="shape" transform="translate(375.083,-278.26)">
			<title>Kreis.63</title>
			<v:userDefs>
				<v:ud v:nameU="visVersion" v:val="VT0(15):26"/>
			</v:userDefs>
			<path d="M0 424.95 A9.49606 9.49606 0 1 1 18.99 424.95 A9.49606 9.49606 0 0 1 0 424.95 Z" class="st14"/>
		</g>
		<g id="shape64-68" v:mID="64" v:groupContext="shape" transform="translate(422.422,-278.26)">
			<title>Kreis.64</title>
			<v:userDefs>
				<v:ud v:nameU="visVersion" v:val="VT0(15):26"/>
			</v:userDefs>
			<path d="M0 424.95 A9.49606 9.49606 0 1 1 18.99 424.95 A9.49606 9.49606 0 0 1 0 424.95 Z" class="st14"/>
		</g>
		<g id="shape77-70" v:mID="77" v:groupContext="shape" transform="translate(170.042,-118.063)">
			<title>Kreis.77</title>
			<v:userDefs>
				<v:ud v:nameU="visVersion" v:val="VT0(15):26"/>
			</v:userDefs>
			<path d="M0 424.95 A9.49606 9.49606 0 1 1 18.99 424.95 A9.49606 9.49606 0 0 1 0 424.95 Z" class="st14"/>
		</g>
		<g id="shape84-72" v:mID="84" v:groupContext="shape" transform="translate(325.736,-56.4094)">
			<title>Kreis.84</title>
			<v:userDefs>
				<v:ud v:nameU="visVersion" v:val="VT0(15):26"/>
			</v:userDefs>
			<path d="M0 424.95 A9.49606 9.49606 0 1 1 18.99 424.95 A9.49606 9.49606 0 0 1 0 424.95 Z" class="st14"/>
		</g>
		<g id="shape85-74" v:mID="85" v:groupContext="shape" transform="translate(375.083,-56.4094)">
			<title>Kreis.85</title>
			<v:userDefs>
				<v:ud v:nameU="visVersion" v:val="VT0(15):26"/>
			</v:userDefs>
			<path d="M0 424.95 A9.49606 9.49606 0 1 1 18.99 424.95 A9.49606 9.49606 0 0 1 0 424.95 Z" class="st14"/>
		</g>
		<g id="shape86-76" v:mID="86" v:groupContext="shape" transform="translate(422.422,-56.4094)">
			<title>Kreis.86</title>
			<v:userDefs>
				<v:ud v:nameU="visVersion" v:val="VT0(15):26"/>
			</v:userDefs>
			<path d="M0 424.95 A9.49606 9.49606 0 1 1 18.99 424.95 A9.49606 9.49606 0 0 1 0 424.95 Z" class="st14"/>
		</g>
	</g>
</svg>
