<?xml version="1.0" encoding="UTF-8" standalone="no"?>
<!DOCTYPE svg PUBLIC "-//W3C//DTD SVG 1.1//EN" "http://www.w3.org/Graphics/SVG/1.1/DTD/svg11.dtd">
<!-- Generiert durch Microsoft Visio, SVG Export repo-push.svg Page-1 -->
<svg xmlns="http://www.w3.org/2000/svg" xmlns:xlink="http://www.w3.org/1999/xlink" xmlns:ev="http://www.w3.org/2001/xml-events"
		xmlns:v="http://schemas.microsoft.com/visio/2003/SVGExtensions/" width="11.6048in" height="6.3422in"
		viewBox="0 0 835.549 456.639" xml:space="preserve" color-interpolation-filters="sRGB" class="st18">
	<v:documentProperties v:langID="1031" v:metric="true" v:viewMarkup="false">
		<v:userDefs>
			<v:ud v:nameU="msvNoAutoConnect" v:val="VT0(0):26"/>
			<v:ud v:nameU="visV14CFF" v:prompt="" v:val="VT0(1):26"/>
			<v:ud v:nameU="visFlowchartType" v:prompt="" v:val="VT4(CrossFunctional)"/>
		</v:userDefs>
	</v:documentProperties>

	<style type="text/css">
	<![CDATA[
		.st1 {fill:none;stroke:none;stroke-width:2}
		.st2 {fill:#ededed;stroke:#a8d08d;stroke-dasharray:6,6;stroke-width:2}
		.st3 {fill:#000000;stroke:#c7c8c8;stroke-width:0.25}
		.st4 {fill:#000000;stroke:#ededed;stroke-width:4.5}
		.st5 {fill:#ededed;stroke:none;stroke-width:0.25}
		.st6 {fill:#000000;font-family:Montserrat;font-size:1.5em}
		.st7 {fill:#c9c9c9;stroke:none;stroke-width:0.25}
		.st8 {fill:#90aadb;stroke:none;stroke-width:2}
		.st9 {fill:#a8d08d;stroke:none;stroke-width:2}
		.st10 {fill:#ed7d31;stroke:none;stroke-width:2}
		.st11 {stroke:#000000;stroke-width:2.75}
		.st12 {fill:none;stroke:#ed7d31;stroke-dasharray:6,6;stroke-width:2}
		.st13 {fill:#ffc000;stroke:none;stroke-width:2}
		.st14 {fill:#ededed;stroke:#90aadb;stroke-dasharray:6,6;stroke-width:2}
		.st15 {fill:none;stroke:#ffc000;stroke-dasharray:6,6;stroke-width:2}
		.st16 {marker-end:url(#mrkr13-97);stroke:#ffc000;stroke-linecap:round;stroke-linejoin:round;stroke-width:2}
		.st17 {fill:#ffc000;fill-opacity:1;stroke:#ffc000;stroke-opacity:1;stroke-width:0.44247787610619}
		.st18 {fill:none;fill-rule:evenodd;font-size:12px;overflow:visible;stroke-linecap:square;stroke-miterlimit:3}
	]]>
	</style>

	<defs id="Markers">
		<g id="lend13">
			<path d="M 3 1 L 0 0 L 3 -1 L 3 1 " style="stroke:none"/>
		</g>
		<marker id="mrkr13-97" class="st17" v:arrowType="13" v:arrowSize="2" v:setback="6.78" refX="-6.78" orient="auto"
				markerUnits="strokeWidth" overflow="visible">
			<use xlink:href="#lend13" transform="scale(-2.26,-2.26) "/>
		</marker>
	</defs>
	<g v:mID="0" v:index="1" v:groupContext="foregroundPage">
		<v:userDefs>
			<v:ud v:nameU="msvThemeOrder" v:val="VT0(0):26"/>
		</v:userDefs>
		<title>Zeichenblatt-1</title>
		<v:pageProperties v:drawingScale="0.0393701" v:pageScale="0.0393701" v:drawingUnits="24" v:shadowOffsetX="8.50394"
				v:shadowOffsetY="-8.50394"/>
		<v:layer v:name="Verbinder" v:index="0"/>
		<g id="group37-1" transform="translate(276.709,-126.717)" v:mID="37" v:groupContext="group">
			<title>Tabelle.37</title>
		</g>
		<g id="shape52-2" v:mID="52" v:groupContext="shape" transform="translate(58.4409,-181.693)">
			<title>Tabelle.52</title>
			<rect x="0" y="409.867" width="676.898" height="46.7717" class="st1"/>
		</g>
		<g id="shape66-4" v:mID="66" v:groupContext="shape" transform="translate(58.4409,-120.04)">
			<title>Tabelle.66</title>
			<rect x="0" y="409.867" width="676.898" height="46.7717" class="st1"/>
		</g>
		<g id="shape74-6" v:mID="74" v:groupContext="shape" transform="translate(32.5892,-77.2517)">
			<title>Rechteck.74</title>
			<v:userDefs>
				<v:ud v:nameU="visVersion" v:val="VT0(15):26"/>
			</v:userDefs>
			<path d="M0 456.64 L732.52 456.64 L732.52 315.5 L0 315.5 L0 456.64 Z" class="st2"/>
		</g>
		<g id="group75-8" transform="translate(274.709,-83.3309)" v:mID="75" v:groupContext="group">
			<title>Tabelle.75</title>
		</g>
		<g id="shape76-9" v:mID="76" v:groupContext="shape" transform="translate(150.819,-160.276)">
			<title>Rechteck.76</title>
			<v:userDefs>
				<v:ud v:nameU="visVersion" v:val="VT0(15):26"/>
			</v:userDefs>
			<rect x="0" y="453.804" width="548.504" height="2.83465" class="st3"/>
		</g>
		<g id="shape78-11" v:mID="78" v:groupContext="shape" transform="translate(306.728,-152.197)">
			<title>Kreis.78</title>
			<v:userDefs>
				<v:ud v:nameU="visVersion" v:val="VT0(15):26"/>
			</v:userDefs>
			<path d="M0 447.14 A9.49606 9.49606 0 1 1 18.99 447.14 A9.49606 9.49606 0 0 1 0 447.14 Z" class="st4"/>
		</g>
		<g id="shape79-13" v:mID="79" v:groupContext="shape" transform="translate(400.862,-152.197)">
			<title>Kreis.79</title>
			<v:userDefs>
				<v:ud v:nameU="visVersion" v:val="VT0(15):26"/>
			</v:userDefs>
			<path d="M0 447.14 A9.49606 9.49606 0 1 1 18.99 447.14 A9.49606 9.49606 0 0 1 0 447.14 Z" class="st4"/>
		</g>
		<g id="shape80-15" v:mID="80" v:groupContext="shape" transform="translate(44.5197,-152.197)">
			<title>Rechteck.80</title>
			<desc>Master</desc>
			<v:userDefs>
				<v:ud v:nameU="visVersion" v:val="VT0(15):26"/>
			</v:userDefs>
			<v:textBlock v:margins="rect(4,4,4,4)" v:tabSpace="42.5197"/>
			<v:textRect cx="41.3983" cy="447.143" width="82.8" height="18.9921"/>
			<rect x="0" y="437.647" width="82.7967" height="18.9921" class="st5"/>
			<text x="11.07" y="452.54" class="st6" v:langID="1031"><v:paragraph v:horizAlign="1"/><v:tabList/>Master</text>		</g>
		<g id="shape81-18" v:mID="81" v:groupContext="shape" transform="translate(56.4409,-138.307)">
			<title>Tabelle.81</title>
			<rect x="0" y="409.867" width="676.898" height="46.7717" class="st1"/>
		</g>
		<g id="shape82-20" v:mID="82" v:groupContext="shape" transform="translate(32.3465,-190.04)">
			<title>Tabelle.82</title>
			<desc>YourLocalClone</desc>
			<v:textBlock v:margins="rect(2,2,2,2)" v:tabSpace="42.5197"/>
			<v:textRect cx="366.261" cy="442.465" width="732.53" height="28.3464"/>
			<rect x="0" y="428.292" width="732.522" height="28.3464" class="st7"/>
			<text x="296.23" y="447.87" class="st6" v:langID="1031"><v:paragraph v:horizAlign="1"/><v:tabList/>YourLocalClone</text>		</g>
		<g id="shape88-23" v:mID="88" v:groupContext="shape" transform="translate(56.4409,-76.6538)">
			<title>Tabelle.88</title>
			<rect x="0" y="409.867" width="676.898" height="46.7717" class="st1"/>
		</g>
		<g id="shape91-25" v:mID="91" v:groupContext="shape" transform="translate(30.3465,-235.289)">
			<title>Rechteck.91</title>
			<desc>Your Fork</desc>
			<v:userDefs>
				<v:ud v:nameU="visVersion" v:val="VT0(15):26"/>
			</v:userDefs>
			<v:textBlock v:margins="rect(4,4,4,4)" v:tabSpace="42.5197"/>
			<v:textRect cx="56.6929" cy="442.465" width="113.39" height="28.3464"/>
			<rect x="0" y="428.292" width="113.386" height="28.3464" class="st8"/>
			<text x="13.89" y="447.87" class="st6" v:langID="1031"><v:paragraph v:horizAlign="1"/><v:tabList/>Your Fork</text>		</g>
		<g id="shape92-28" v:mID="92" v:groupContext="shape" transform="translate(30.3465,-30.3465)">
			<title>Rechteck.92</title>
			<desc>Your local Clone</desc>
			<v:userDefs>
				<v:ud v:nameU="visVersion" v:val="VT0(15):26"/>
			</v:userDefs>
			<v:textBlock v:margins="rect(4,4,4,4)" v:tabSpace="42.5197"/>
			<v:textRect cx="85.0394" cy="442.465" width="170.08" height="28.3464"/>
			<rect x="0" y="428.292" width="170.079" height="28.3464" class="st9"/>
			<text x="12.52" y="447.87" class="st6" v:langID="1031"><v:paragraph v:horizAlign="1"/><v:tabList/>Your local Clone</text>		</g>
		<g id="shape116-31" v:mID="116" v:groupContext="shape" transform="translate(43.811,-104.082)">
			<title>Rechteck.116</title>
			<desc>Feature/YourFeature</desc>
			<v:userDefs>
				<v:ud v:nameU="visVersion" v:val="VT0(15):26"/>
			</v:userDefs>
			<v:textBlock v:margins="rect(4,4,4,4)" v:tabSpace="42.5197"/>
			<v:textRect cx="102.756" cy="447.143" width="205.52" height="18.9921"/>
			<rect x="0" y="437.647" width="205.512" height="18.9921" class="st5"/>
			<text x="10.76" y="452.54" class="st6" v:langID="1031"><v:paragraph v:horizAlign="1"/><v:tabList/>Feature/YourFeature</text>		</g>
		<g id="shape124-34" v:mID="124" v:groupContext="shape" transform="translate(222.986,-30.3465)">
			<title>Rechteck.124</title>
			<desc>Your local Branch</desc>
			<v:userDefs>
				<v:ud v:nameU="visVersion" v:val="VT0(15):26"/>
			</v:userDefs>
			<v:textBlock v:margins="rect(4,4,4,4)" v:tabSpace="42.5197"/>
			<v:textRect cx="102.756" cy="442.465" width="205.52" height="28.3464"/>
			<rect x="0" y="428.292" width="205.512" height="28.3464" class="st10"/>
			<text x="23.81" y="447.87" class="st6" v:langID="1031"><v:paragraph v:horizAlign="1"/><v:tabList/>Your local Branch</text>		</g>
		<g id="shape119-37" v:mID="119" v:groupContext="shape" v:layerMember="0" transform="translate(150.819,-161.693)">
			<title>Dynamischer Verbinder.119</title>
			<path d="M0 456.64 L82.24 456.64 A24.0577 24.0577 0 0 1 106.3 480.7 L106.3 480.7 A24.0577 24.0577 -180 0 0 130.36 504.75
						 L191.34 504.75" class="st11"/>
		</g>
		<g id="shape131-40" v:mID="131" v:groupContext="shape" transform="translate(342.157,-112.16)">
			<title>Rechteck.131</title>
			<v:userDefs>
				<v:ud v:nameU="visVersion" v:val="VT0(15):26"/>
			</v:userDefs>
			<rect x="0" y="453.804" width="358.583" height="2.83465" class="st3"/>
		</g>
		<g id="shape122-42" v:mID="122" v:groupContext="shape" transform="translate(450.219,-104.082)">
			<title>Kreis.122</title>
			<v:userDefs>
				<v:ud v:nameU="visVersion" v:val="VT0(15):26"/>
			</v:userDefs>
			<path d="M0 447.14 A9.49606 9.49606 0 1 1 18.99 447.14 A9.49606 9.49606 0 0 1 0 447.14 Z" class="st4"/>
		</g>
		<g id="shape121-44" v:mID="121" v:groupContext="shape" transform="translate(402.879,-104.082)">
			<title>Kreis.121</title>
			<v:userDefs>
				<v:ud v:nameU="visVersion" v:val="VT0(15):26"/>
			</v:userDefs>
			<path d="M0 447.14 A9.49606 9.49606 0 1 1 18.99 447.14 A9.49606 9.49606 0 0 1 0 447.14 Z" class="st4"/>
		</g>
		<g id="shape120-46" v:mID="120" v:groupContext="shape" transform="translate(353.533,-104.082)">
			<title>Kreis.120</title>
			<v:userDefs>
				<v:ud v:nameU="visVersion" v:val="VT0(15):26"/>
			</v:userDefs>
			<path d="M0 447.14 A9.49606 9.49606 0 1 1 18.99 447.14 A9.49606 9.49606 0 0 1 0 447.14 Z" class="st4"/>
		</g>
		<g id="shape77-48" v:mID="77" v:groupContext="shape" transform="translate(174.042,-152.197)">
			<title>Kreis.77</title>
			<v:userDefs>
				<v:ud v:nameU="visVersion" v:val="VT0(15):26"/>
			</v:userDefs>
			<path d="M0 447.14 A9.49606 9.49606 0 1 1 18.99 447.14 A9.49606 9.49606 0 0 1 0 447.14 Z" class="st4"/>
		</g>
		<g id="shape133-50" v:mID="133" v:groupContext="shape" transform="translate(43.811,-92.6329)">
			<title>Rechteck.133</title>
			<v:userDefs>
				<v:ud v:nameU="visVersion" v:val="VT0(15):26"/>
			</v:userDefs>
			<path d="M0 456.64 L709.37 456.64 L709.37 415.13 L0 415.13 L0 456.64 Z" class="st12"/>
		</g>
		<g id="shape136-52" v:mID="136" v:groupContext="shape" transform="translate(607.449,-235.289)">
			<title>Rechteck.136</title>
			<desc>Push to GitHub</desc>
			<v:userDefs>
				<v:ud v:nameU="visVersion" v:val="VT0(15):26"/>
			</v:userDefs>
			<v:textBlock v:margins="rect(4,4,4,4)" v:tabSpace="42.5197"/>
			<v:textRect cx="77.8314" cy="442.465" width="155.67" height="28.3464"/>
			<rect x="0" y="428.292" width="155.663" height="28.3464" class="st13"/>
			<text x="10.74" y="447.87" class="st6" v:langID="1031"><v:paragraph v:horizAlign="1"/><v:tabList/>Push to GitHub</text>		</g>
		<g id="shape137-55" v:mID="137" v:groupContext="shape" transform="translate(32.5892,-285.158)">
			<title>Rechteck.137</title>
			<v:userDefs>
				<v:ud v:nameU="visVersion" v:val="VT0(15):26"/>
			</v:userDefs>
			<path d="M0 456.64 L732.52 456.64 L732.52 315.5 L0 315.5 L0 456.64 Z" class="st14"/>
		</g>
		<g id="group138-57" transform="translate(274.709,-360.103)" v:mID="138" v:groupContext="group">
			<title>Tabelle.138</title>
		</g>
		<g id="shape139-58" v:mID="139" v:groupContext="shape" transform="translate(150.819,-368.182)">
			<title>Rechteck.139</title>
			<v:userDefs>
				<v:ud v:nameU="visVersion" v:val="VT0(15):26"/>
			</v:userDefs>
			<rect x="0" y="453.804" width="548.504" height="2.83465" class="st3"/>
		</g>
		<g id="shape140-60" v:mID="140" v:groupContext="shape" transform="translate(306.728,-360.103)">
			<title>Kreis.140</title>
			<v:userDefs>
				<v:ud v:nameU="visVersion" v:val="VT0(15):26"/>
			</v:userDefs>
			<path d="M0 447.14 A9.49606 9.49606 0 1 1 18.99 447.14 A9.49606 9.49606 0 0 1 0 447.14 Z" class="st4"/>
		</g>
		<g id="shape141-62" v:mID="141" v:groupContext="shape" transform="translate(400.862,-360.103)">
			<title>Kreis.141</title>
			<v:userDefs>
				<v:ud v:nameU="visVersion" v:val="VT0(15):26"/>
			</v:userDefs>
			<path d="M0 447.14 A9.49606 9.49606 0 1 1 18.99 447.14 A9.49606 9.49606 0 0 1 0 447.14 Z" class="st4"/>
		</g>
		<g id="shape142-64" v:mID="142" v:groupContext="shape" transform="translate(44.5197,-360.103)">
			<title>Rechteck.142</title>
			<desc>Master</desc>
			<v:userDefs>
				<v:ud v:nameU="visVersion" v:val="VT0(15):26"/>
			</v:userDefs>
			<v:textBlock v:margins="rect(4,4,4,4)" v:tabSpace="42.5197"/>
			<v:textRect cx="41.3983" cy="447.143" width="82.8" height="18.9921"/>
			<rect x="0" y="437.647" width="82.7967" height="18.9921" class="st5"/>
			<text x="11.07" y="452.54" class="st6" v:langID="1031"><v:paragraph v:horizAlign="1"/><v:tabList/>Master</text>		</g>
		<g id="shape143-67" v:mID="143" v:groupContext="shape" transform="translate(56.4409,-346.213)">
			<title>Tabelle.143</title>
			<rect x="0" y="409.867" width="676.898" height="46.7717" class="st1"/>
		</g>
		<g id="shape144-69" v:mID="144" v:groupContext="shape" transform="translate(32.3465,-397.946)">
			<title>Tabelle.144</title>
			<desc>YourUsername/SpongePowered</desc>
			<v:textBlock v:margins="rect(2,2,2,2)" v:tabSpace="42.5197"/>
			<v:textRect cx="366.261" cy="442.465" width="732.53" height="28.3464"/>
			<rect x="0" y="428.292" width="732.522" height="28.3464" class="st7"/>
			<text x="222.29" y="447.87" class="st6" v:langID="1031"><v:paragraph v:horizAlign="1"/><v:tabList/>YourUsername/SpongePowered</text>		</g>
		<g id="shape147-72" v:mID="147" v:groupContext="shape" transform="translate(56.4409,-284.56)">
			<title>Tabelle.147</title>
			<rect x="0" y="409.867" width="676.898" height="46.7717" class="st1"/>
		</g>
		<g id="shape152-74" v:mID="152" v:groupContext="shape" transform="translate(43.811,-318.373)">
			<title>Rechteck.152</title>
			<desc>Feature/YourFeature</desc>
			<v:userDefs>
				<v:ud v:nameU="visVersion" v:val="VT0(15):26"/>
			</v:userDefs>
			<v:textBlock v:margins="rect(4,4,4,4)" v:tabSpace="42.5197"/>
			<v:textRect cx="102.756" cy="447.143" width="205.52" height="18.9921"/>
			<rect x="0" y="437.647" width="205.512" height="18.9921" class="st5"/>
			<text x="10.76" y="452.54" class="st6" v:langID="1031"><v:paragraph v:horizAlign="1"/><v:tabList/>Feature/YourFeature</text>		</g>
		<g id="shape153-77" v:mID="153" v:groupContext="shape" v:layerMember="0" transform="translate(150.819,-369.599)">
			<title>Dynamischer Verbinder.153</title>
			<path d="M0 456.64 L85.43 456.64 A20.8649 20.8649 0 0 1 106.3 477.5 L106.3 477.5 A20.8649 20.8649 -180 0 0 127.16 498.37
						 L191.34 498.37" class="st11"/>
		</g>
		<g id="shape154-80" v:mID="154" v:groupContext="shape" transform="translate(342.157,-326.452)">
			<title>Rechteck.154</title>
			<v:userDefs>
				<v:ud v:nameU="visVersion" v:val="VT0(15):26"/>
			</v:userDefs>
			<rect x="0" y="453.804" width="358.583" height="2.83465" class="st3"/>
		</g>
		<g id="shape155-82" v:mID="155" v:groupContext="shape" transform="translate(450.219,-318.373)">
			<title>Kreis.155</title>
			<v:userDefs>
				<v:ud v:nameU="visVersion" v:val="VT0(15):26"/>
			</v:userDefs>
			<path d="M0 447.14 A9.49606 9.49606 0 1 1 18.99 447.14 A9.49606 9.49606 0 0 1 0 447.14 Z" class="st4"/>
		</g>
		<g id="shape156-84" v:mID="156" v:groupContext="shape" transform="translate(402.879,-318.373)">
			<title>Kreis.156</title>
			<v:userDefs>
				<v:ud v:nameU="visVersion" v:val="VT0(15):26"/>
			</v:userDefs>
			<path d="M0 447.14 A9.49606 9.49606 0 1 1 18.99 447.14 A9.49606 9.49606 0 0 1 0 447.14 Z" class="st4"/>
		</g>
		<g id="shape157-86" v:mID="157" v:groupContext="shape" transform="translate(353.533,-318.373)">
			<title>Kreis.157</title>
			<v:userDefs>
				<v:ud v:nameU="visVersion" v:val="VT0(15):26"/>
			</v:userDefs>
			<path d="M0 447.14 A9.49606 9.49606 0 1 1 18.99 447.14 A9.49606 9.49606 0 0 1 0 447.14 Z" class="st4"/>
		</g>
		<g id="shape158-88" v:mID="158" v:groupContext="shape" transform="translate(174.042,-360.103)">
			<title>Kreis.158</title>
			<v:userDefs>
				<v:ud v:nameU="visVersion" v:val="VT0(15):26"/>
			</v:userDefs>
			<path d="M0 447.14 A9.49606 9.49606 0 1 1 18.99 447.14 A9.49606 9.49606 0 0 1 0 447.14 Z" class="st4"/>
		</g>
		<g id="shape159-90" v:mID="159" v:groupContext="shape" transform="translate(43.811,-306.925)">
			<title>Rechteck.159</title>
			<v:userDefs>
				<v:ud v:nameU="visVersion" v:val="VT0(15):26"/>
			</v:userDefs>
			<path d="M0 456.64 L709.37 456.64 L709.37 415.13 L0 415.13 L0 456.64 Z" class="st15"/>
		</g>
		<g id="shape160-92" v:mID="160" v:groupContext="shape" v:layerMember="0" transform="translate(746.094,-113.386)">
			<title>Dynamischer Verbinder</title>
			<path d="M7.09 456.64 L41.11 456.64 L41.11 242.35 L20.65 242.35" class="st16"/>
		</g>
	</g>
</svg>
