<?xml version="1.0" encoding="UTF-8" standalone="no"?>
<!DOCTYPE svg PUBLIC "-//W3C//DTD SVG 1.1//EN" "http://www.w3.org/Graphics/SVG/1.1/DTD/svg11.dtd">
<!-- Generiert durch Microsoft Visio, SVG Export repo-overview.svg Page-1 -->
<svg xmlns="http://www.w3.org/2000/svg" xmlns:xlink="http://www.w3.org/1999/xlink" xmlns:ev="http://www.w3.org/2001/xml-events"
		xmlns:v="http://schemas.microsoft.com/visio/2003/SVGExtensions/" width="10.9891in" height="3.58497in"
		viewBox="0 0 791.215 258.118" xml:space="preserve" color-interpolation-filters="sRGB" class="st15">
	<v:documentProperties v:langID="1031" v:metric="true" v:viewMarkup="false">
		<v:userDefs>
			<v:ud v:nameU="msvNoAutoConnect" v:val="VT0(0):26"/>
			<v:ud v:nameU="visV14CFF" v:prompt="" v:val="VT0(1):26"/>
			<v:ud v:nameU="visFlowchartType" v:prompt="" v:val="VT4(CrossFunctional)"/>
		</v:userDefs>
	</v:documentProperties>

	<style type="text/css">
	<![CDATA[
		.st1 {fill:#ededed;stroke:#ffc000;stroke-dasharray:14,10;stroke-width:2}
		.st2 {fill:#000000;stroke:#c7c8c8;stroke-width:0.25}
		.st3 {fill:#000000;stroke:#ededed;stroke-width:4.5}
		.st4 {fill:#ededed;stroke:none;stroke-width:0.25}
		.st5 {fill:#000000;font-family:Montserrat;font-size:1.5em}
		.st6 {fill:#ffc000;stroke:none;stroke-width:1}
		.st7 {fill:#a8d08d;stroke:none;stroke-width:1}
		.st8 {fill:#90aadb;stroke:none;stroke-width:1}
		.st9 {fill:none;stroke:#a8d08d;stroke-dasharray:6,6;stroke-width:2}
		.st10 {visibility:visible}
		.st11 {fill:none;filter:url(#filter_2);stroke:#5b9bd5;stroke-dasharray:6,6;stroke-opacity:0.22}
		.st12 {fill:none;stroke:#90aadb;stroke-dasharray:6,6;stroke-width:2}
		.st13 {fill:#c9c9c9;stroke:none;stroke-width:0.25}
		.st14 {stroke:#000000;stroke-width:2.75}
		.st15 {fill:none;fill-rule:evenodd;font-size:12px;overflow:visible;stroke-linecap:square;stroke-miterlimit:3}
	]]>
	</style>

	<defs id="Filters">
		<filter id="filter_2">
			<feGaussianBlur stdDeviation="2"/>
		</filter>
	</defs>
	<g v:mID="0" v:index="1" v:groupContext="foregroundPage">
		<v:userDefs>
			<v:ud v:nameU="msvThemeOrder" v:val="VT0(0):26"/>
		</v:userDefs>
		<title>Zeichenblatt-1</title>
		<v:pageProperties v:drawingScale="0.0393701" v:pageScale="0.0393701" v:drawingUnits="24" v:shadowOffsetX="8.50394"
				v:shadowOffsetY="-8.50394"/>
		<v:layer v:name="Verbinder" v:index="0"/>
		<g id="shape25-1" v:mID="25" v:groupContext="shape" transform="translate(30.3465,-71.8661)">
			<title>Rechteck.25</title>
			<v:userDefs>
				<v:ud v:nameU="visVersion" v:val="VT0(15):26"/>
			</v:userDefs>
			<path d="M0 258.12 L732.52 258.12 L732.52 102.21 L0 102.21 L0 258.12 Z" class="st1"/>
		</g>
		<g id="group37-3" transform="translate(272.709,-161.583)" v:mID="37" v:groupContext="group">
			<title>Tabelle.37</title>
		</g>
		<g id="shape23-4" v:mID="23" v:groupContext="shape" transform="translate(159.323,-169.661)">
			<title>Rechteck.23</title>
			<v:userDefs>
				<v:ud v:nameU="visVersion" v:val="VT0(15):26"/>
			</v:userDefs>
			<rect x="0" y="255.283" width="538" height="2.83465" class="st2"/>
		</g>
		<g id="shape40-6" v:mID="40" v:groupContext="shape" transform="translate(398.862,-161.583)">
			<title>Kreis.40</title>
			<v:userDefs>
				<v:ud v:nameU="visVersion" v:val="VT0(15):26"/>
			</v:userDefs>
			<path d="M0 248.62 A9.49606 9.49606 0 1 1 18.99 248.62 A9.49606 9.49606 0 0 1 0 248.62 Z" class="st3"/>
		</g>
		<g id="shape42-8" v:mID="42" v:groupContext="shape" transform="translate(53.0236,-161.583)">
			<title>Rechteck</title>
			<desc>Master</desc>
			<v:userDefs>
				<v:ud v:nameU="visVersion" v:val="VT0(15):26"/>
			</v:userDefs>
			<v:textBlock v:margins="rect(4,4,4,4)" v:tabSpace="42.5197"/>
			<v:textRect cx="49.6063" cy="248.622" width="99.22" height="18.9921"/>
			<rect x="0" y="239.126" width="99.2126" height="18.9921" class="st4"/>
			<text x="19.28" y="254.02" class="st5" v:langID="1031"><v:paragraph v:horizAlign="1"/><v:tabList/>Master</text>		</g>
		<g id="shape45-11" v:mID="45" v:groupContext="shape" transform="translate(31.7638,-29.3465)">
			<title>Tabelle.45</title>
			<desc>Repository</desc>
			<v:textBlock v:margins="rect(2,2,2,2)" v:tabSpace="42.5197"/>
			<v:textRect cx="63.7795" cy="243.945" width="127.56" height="28.3464"/>
			<rect x="0" y="229.772" width="127.559" height="28.3464" class="st6"/>
			<text x="15.84" y="249.34" class="st5" v:langID="1031"><v:paragraph v:horizAlign="1"/><v:tabList/>Repository</text>		</g>
		<g id="shape46-14" v:mID="46" v:groupContext="shape" transform="translate(166.409,-29.3465)">
			<title>Tabelle.46</title>
			<desc>Branch</desc>
			<v:textBlock v:margins="rect(2,2,2,2)" v:tabSpace="42.5197"/>
			<v:textRect cx="63.7795" cy="243.945" width="127.56" height="28.3464"/>
			<rect x="0" y="229.772" width="127.559" height="28.3464" class="st7"/>
			<text x="31.54" y="249.34" class="st5" v:langID="1031"><v:paragraph v:horizAlign="1"/><v:tabList/>Branch</text>		</g>
		<g id="shape47-17" v:mID="47" v:groupContext="shape" transform="translate(301.055,-29.3465)">
			<title>Tabelle.47</title>
			<desc>Commit</desc>
			<v:textBlock v:margins="rect(2,2,2,2)" v:tabSpace="42.5197"/>
			<v:textRect cx="63.7795" cy="243.945" width="127.56" height="28.3464"/>
			<rect x="0" y="229.772" width="127.559" height="28.3464" class="st8"/>
			<text x="26.89" y="249.34" class="st5" v:langID="1031"><v:paragraph v:horizAlign="1"/><v:tabList/>Commit</text>		</g>
		<g id="shape52-20" v:mID="52" v:groupContext="shape" transform="translate(54.4409,-147.693)">
			<title>Tabelle.52</title>
			<path d="M0 258.12 L676.9 258.12 L676.9 211.35 L0 211.35 L0 258.12 Z" class="st9"/>
		</g>
		<g id="shape54-22" v:mID="54" v:groupContext="shape" transform="translate(165.405,-155.902)">
			<title>Quadrat</title>
			<v:userDefs>
				<v:ud v:nameU="visVersion" v:val="VT0(15):26"/>
			</v:userDefs>
			<g id="shadow54-23" v:groupContext="shadow" v:shadowOffsetX="0.345598" v:shadowOffsetY="-1.97279" v:shadowType="1"
					transform="matrix(1,0,0,1,0.345598,1.97279)" class="st10">
				<path d="M0 258.12 L30.35 258.12 L30.35 227.76 L0 227.76 L0 258.12 Z" class="st11"/>
			</g>
			<path d="M0 258.12 L30.35 258.12 L30.35 227.76 L0 227.76 L0 258.12 Z" class="st12"/>
		</g>
		<g id="shape56-27" v:mID="56" v:groupContext="shape" transform="translate(299.047,-155.902)">
			<title>Quadrat.56</title>
			<v:userDefs>
				<v:ud v:nameU="visVersion" v:val="VT0(15):26"/>
			</v:userDefs>
			<g id="shadow56-28" v:groupContext="shadow" v:shadowOffsetX="0.345598" v:shadowOffsetY="-1.97279" v:shadowType="1"
					transform="matrix(1,0,0,1,0.345598,1.97279)" class="st10">
				<path d="M0 258.12 L30.35 258.12 L30.35 227.76 L0 227.76 L0 258.12 Z" class="st11"/>
			</g>
			<path d="M0 258.12 L30.35 258.12 L30.35 227.76 L0 227.76 L0 258.12 Z" class="st12"/>
		</g>
		<g id="shape57-32" v:mID="57" v:groupContext="shape" transform="translate(393.181,-155.902)">
			<title>Quadrat.57</title>
			<v:userDefs>
				<v:ud v:nameU="visVersion" v:val="VT0(15):26"/>
			</v:userDefs>
			<g id="shadow57-33" v:groupContext="shadow" v:shadowOffsetX="0.345598" v:shadowOffsetY="-1.97279" v:shadowType="1"
					transform="matrix(1,0,0,1,0.345598,1.97279)" class="st10">
				<path d="M0 258.12 L30.35 258.12 L30.35 227.76 L0 227.76 L0 258.12 Z" class="st11"/>
			</g>
			<path d="M0 258.12 L30.35 258.12 L30.35 227.76 L0 227.76 L0 258.12 Z" class="st12"/>
		</g>
		<g id="shape36-37" v:mID="36" v:groupContext="shape" transform="translate(31.7638,-199.425)">
			<title>Tabelle.36</title>
			<desc>SpongePowered</desc>
			<v:textBlock v:margins="rect(2,2,2,2)" v:tabSpace="42.5197"/>
			<v:textRect cx="365.553" cy="243.945" width="731.11" height="28.3464"/>
			<rect x="0" y="229.772" width="731.105" height="28.3464" class="st13"/>
			<text x="291.2" y="249.34" class="st5" v:langID="1031"><v:paragraph v:horizAlign="1"/><v:tabList/>SpongePowered</text>		</g>
		<g id="shape60-40" v:mID="60" v:groupContext="shape" transform="translate(279.795,-108.008)">
			<title>Rechteck.60</title>
			<v:userDefs>
				<v:ud v:nameU="visVersion" v:val="VT0(15):26"/>
			</v:userDefs>
			<rect x="0" y="255.283" width="414.693" height="2.83465" class="st2"/>
		</g>
		<g id="shape65-42" v:mID="65" v:groupContext="shape" transform="translate(53.0236,-99.9291)">
			<title>Rechteck.65</title>
			<desc>Feature 1</desc>
			<v:userDefs>
				<v:ud v:nameU="visVersion" v:val="VT0(15):26"/>
			</v:userDefs>
			<v:textBlock v:margins="rect(4,4,4,4)" v:tabSpace="42.5197"/>
			<v:textRect cx="49.6063" cy="248.622" width="99.22" height="18.9921"/>
			<rect x="0" y="239.126" width="99.2126" height="18.9921" class="st4"/>
			<text x="9.68" y="254.02" class="st5" v:langID="1031"><v:paragraph v:horizAlign="1"/><v:tabList/>Feature 1</text>		</g>
		<g id="shape66-45" v:mID="66" v:groupContext="shape" transform="translate(54.4409,-86.0394)">
			<title>Tabelle.66</title>
			<path d="M0 258.12 L676.9 258.12 L676.9 211.35 L0 211.35 L0 258.12 Z" class="st9"/>
		</g>
		<g id="shape68-47" v:mID="68" v:groupContext="shape" transform="translate(322.055,-94.248)">
			<title>Quadrat.68</title>
			<v:userDefs>
				<v:ud v:nameU="visVersion" v:val="VT0(15):26"/>
			</v:userDefs>
			<g id="shadow68-48" v:groupContext="shadow" v:shadowOffsetX="0.345598" v:shadowOffsetY="-1.97279" v:shadowType="1"
					transform="matrix(1,0,0,1,0.345598,1.97279)" class="st10">
				<path d="M0 258.12 L30.35 258.12 L30.35 227.76 L0 227.76 L0 258.12 Z" class="st11"/>
			</g>
			<path d="M0 258.12 L30.35 258.12 L30.35 227.76 L0 227.76 L0 258.12 Z" class="st12"/>
		</g>
		<g id="shape69-52" v:mID="69" v:groupContext="shape" transform="translate(371.402,-94.248)">
			<title>Quadrat.69</title>
			<v:userDefs>
				<v:ud v:nameU="visVersion" v:val="VT0(15):26"/>
			</v:userDefs>
			<g id="shadow69-53" v:groupContext="shadow" v:shadowOffsetX="0.345598" v:shadowOffsetY="-1.97279" v:shadowType="1"
					transform="matrix(1,0,0,1,0.345598,1.97279)" class="st10">
				<path d="M0 258.12 L30.35 258.12 L30.35 227.76 L0 227.76 L0 258.12 Z" class="st11"/>
			</g>
			<path d="M0 258.12 L30.35 258.12 L30.35 227.76 L0 227.76 L0 258.12 Z" class="st12"/>
		</g>
		<g id="shape70-57" v:mID="70" v:groupContext="shape" transform="translate(418.741,-94.248)">
			<title>Quadrat.70</title>
			<v:userDefs>
				<v:ud v:nameU="visVersion" v:val="VT0(15):26"/>
			</v:userDefs>
			<g id="shadow70-58" v:groupContext="shadow" v:shadowOffsetX="0.345598" v:shadowOffsetY="-1.97279" v:shadowType="1"
					transform="matrix(1,0,0,1,0.345598,1.97279)" class="st10">
				<path d="M0 258.12 L30.35 258.12 L30.35 227.76 L0 227.76 L0 258.12 Z" class="st11"/>
			</g>
			<path d="M0 258.12 L30.35 258.12 L30.35 227.76 L0 227.76 L0 258.12 Z" class="st12"/>
		</g>
		<g id="shape71-62" v:mID="71" v:groupContext="shape" v:layerMember="0" transform="translate(152.236,-171.079)">
			<title>Dynamischer Verbinder</title>
			<path d="M0 258.12 L53.12 258.12 A28.3465 28.3465 0 0 1 81.46 286.46 L81.46 291.43 A28.3465 28.3465 -180 0 0 109.81 319.77
						 L542.25 319.77" class="st14"/>
		</g>
		<g id="shape32-65" v:mID="32" v:groupContext="shape" transform="translate(172.042,-161.583)">
			<title>Kreis.32</title>
			<v:userDefs>
				<v:ud v:nameU="visVersion" v:val="VT0(15):26"/>
			</v:userDefs>
			<path d="M0 248.62 A9.49606 9.49606 0 1 1 18.99 248.62 A9.49606 9.49606 0 0 1 0 248.62 Z" class="st3"/>
		</g>
		<g id="shape39-67" v:mID="39" v:groupContext="shape" transform="translate(304.728,-161.583)">
			<title>Kreis.39</title>
			<v:userDefs>
				<v:ud v:nameU="visVersion" v:val="VT0(15):26"/>
			</v:userDefs>
			<path d="M0 248.62 A9.49606 9.49606 0 1 1 18.99 248.62 A9.49606 9.49606 0 0 1 0 248.62 Z" class="st3"/>
		</g>
		<g id="shape62-69" v:mID="62" v:groupContext="shape" transform="translate(327.736,-99.9291)">
			<title>Kreis.62</title>
			<v:userDefs>
				<v:ud v:nameU="visVersion" v:val="VT0(15):26"/>
			</v:userDefs>
			<path d="M0 248.62 A9.49606 9.49606 0 1 1 18.99 248.62 A9.49606 9.49606 0 0 1 0 248.62 Z" class="st3"/>
		</g>
		<g id="shape63-71" v:mID="63" v:groupContext="shape" transform="translate(377.083,-99.9291)">
			<title>Kreis.63</title>
			<v:userDefs>
				<v:ud v:nameU="visVersion" v:val="VT0(15):26"/>
			</v:userDefs>
			<path d="M0 248.62 A9.49606 9.49606 0 1 1 18.99 248.62 A9.49606 9.49606 0 0 1 0 248.62 Z" class="st3"/>
		</g>
		<g id="shape64-73" v:mID="64" v:groupContext="shape" transform="translate(424.422,-99.9291)">
			<title>Kreis.64</title>
			<v:userDefs>
				<v:ud v:nameU="visVersion" v:val="VT0(15):26"/>
			</v:userDefs>
			<path d="M0 248.62 A9.49606 9.49606 0 1 1 18.99 248.62 A9.49606 9.49606 0 0 1 0 248.62 Z" class="st3"/>
		</g>
	</g>
</svg>
