<?xml version="1.0" encoding="UTF-8" standalone="no"?>
<!DOCTYPE svg PUBLIC "-//W3C//DTD SVG 1.1//EN" "http://www.w3.org/Graphics/SVG/1.1/DTD/svg11.dtd">
<!-- Generiert durch Microsoft Visio, SVG Export repo-commit.svg Page-1 -->
<svg xmlns="http://www.w3.org/2000/svg" xmlns:xlink="http://www.w3.org/1999/xlink" xmlns:ev="http://www.w3.org/2001/xml-events"
		xmlns:v="http://schemas.microsoft.com/visio/2003/SVGExtensions/" width="11.0447in" height="3.33476in"
		viewBox="0 0 795.215 240.103" xml:space="preserve" color-interpolation-filters="sRGB" class="st15">
	<v:documentProperties v:langID="1031" v:metric="true" v:viewMarkup="false">
		<v:userDefs>
			<v:ud v:nameU="msvNoAutoConnect" v:val="VT0(0):26"/>
			<v:ud v:nameU="visV14CFF" v:prompt="" v:val="VT0(1):26"/>
			<v:ud v:nameU="visFlowchartType" v:prompt="" v:val="VT4(CrossFunctional)"/>
		</v:userDefs>
	</v:documentProperties>

	<style type="text/css">
	<![CDATA[
		.st1 {fill:#ededed;stroke:#a8d08d;stroke-dasharray:6,6;stroke-width:2}
		.st2 {fill:#000000;stroke:#c7c8c8;stroke-width:0.25}
		.st3 {fill:#ededed;stroke:none;stroke-width:0.25}
		.st4 {fill:#000000;font-family:Montserrat;font-size:1.5em}
		.st5 {fill:none;stroke:none;stroke-width:2}
		.st6 {fill:#c9c9c9;stroke:none;stroke-width:0.25}
		.st7 {fill:#a8d08d;stroke:none;stroke-width:2}
		.st8 {fill:#ed7d31;stroke:none;stroke-width:2}
		.st9 {stroke:#000000;stroke-width:2.75}
		.st10 {fill:#000000;stroke:none;stroke-width:0.25}
		.st11 {fill:#000000;stroke:#ededed;stroke-width:4.5}
		.st12 {visibility:visible}
		.st13 {fill:none;filter:url(#filter_2);stroke:#5b9bd5;stroke-dasharray:6,6;stroke-opacity:0.22}
		.st14 {fill:none;stroke:#ed7d31;stroke-dasharray:6,6;stroke-width:2}
		.st15 {fill:none;fill-rule:evenodd;font-size:12px;overflow:visible;stroke-linecap:square;stroke-miterlimit:3}
	]]>
	</style>

	<defs id="Filters">
		<filter id="filter_2">
			<feGaussianBlur stdDeviation="2"/>
		</filter>
	</defs>
	<g v:mID="0" v:index="1" v:groupContext="foregroundPage">
		<v:userDefs>
			<v:ud v:nameU="msvThemeOrder" v:val="VT0(0):26"/>
		</v:userDefs>
		<title>Zeichenblatt-1</title>
		<v:pageProperties v:drawingScale="0.0393701" v:pageScale="0.0393701" v:drawingUnits="24" v:shadowOffsetX="8.50394"
				v:shadowOffsetY="-8.50394"/>
		<v:layer v:name="Verbinder" v:index="0"/>
		<g id="shape74-1" v:mID="74" v:groupContext="shape" transform="translate(32.3465,-76.4094)">
			<title>Rechteck.74</title>
			<v:userDefs>
				<v:ud v:nameU="visVersion" v:val="VT0(15):26"/>
			</v:userDefs>
			<path d="M0 240.1 L732.52 240.1 L732.52 106.76 L0 106.76 L0 240.1 Z" class="st1"/>
		</g>
		<g id="group75-3" transform="translate(274.466,-143.567)" v:mID="75" v:groupContext="group">
			<title>Tabelle.75</title>
		</g>
		<g id="shape76-4" v:mID="76" v:groupContext="shape" transform="translate(150.576,-151.646)">
			<title>Rechteck.76</title>
			<v:userDefs>
				<v:ud v:nameU="visVersion" v:val="VT0(15):26"/>
			</v:userDefs>
			<rect x="0" y="237.268" width="548.504" height="2.83465" class="st2"/>
		</g>
		<g id="shape80-6" v:mID="80" v:groupContext="shape" transform="translate(44.277,-143.567)">
			<title>Rechteck.80</title>
			<desc>Master</desc>
			<v:userDefs>
				<v:ud v:nameU="visVersion" v:val="VT0(15):26"/>
			</v:userDefs>
			<v:textBlock v:margins="rect(4,4,4,4)" v:tabSpace="42.5197"/>
			<v:textRect cx="41.3983" cy="230.607" width="82.8" height="18.9921"/>
			<rect x="0" y="221.11" width="82.7967" height="18.9921" class="st3"/>
			<text x="11.07" y="236.01" class="st4" v:langID="1031"><v:paragraph v:horizAlign="1"/><v:tabList/>Master</text>		</g>
		<g id="shape81-9" v:mID="81" v:groupContext="shape" transform="translate(56.1982,-129.677)">
			<title>Tabelle.81</title>
			<rect x="0" y="193.331" width="676.898" height="46.7717" class="st5"/>
		</g>
		<g id="shape82-11" v:mID="82" v:groupContext="shape" transform="translate(32.1037,-181.41)">
			<title>Tabelle.82</title>
			<desc>YourLocalClone</desc>
			<v:textBlock v:margins="rect(2,2,2,2)" v:tabSpace="42.5197"/>
			<v:textRect cx="366.261" cy="225.929" width="732.53" height="28.3464"/>
			<rect x="0" y="211.756" width="732.522" height="28.3464" class="st6"/>
			<text x="296.23" y="231.33" class="st4" v:langID="1031"><v:paragraph v:horizAlign="1"/><v:tabList/>YourLocalClone</text>		</g>
		<g id="shape92-14" v:mID="92" v:groupContext="shape" transform="translate(30.3465,-30.3465)">
			<title>Rechteck.92</title>
			<desc>Your local Clone</desc>
			<v:userDefs>
				<v:ud v:nameU="visVersion" v:val="VT0(15):26"/>
			</v:userDefs>
			<v:textBlock v:margins="rect(4,4,4,4)" v:tabSpace="42.5197"/>
			<v:textRect cx="85.0394" cy="225.929" width="170.08" height="28.3464"/>
			<rect x="0" y="211.756" width="170.079" height="28.3464" class="st7"/>
			<text x="12.52" y="231.33" class="st4" v:langID="1031"><v:paragraph v:horizAlign="1"/><v:tabList/>Your local Clone</text>		</g>
		<g id="shape116-17" v:mID="116" v:groupContext="shape" transform="translate(43.5683,-103.22)">
			<title>Rechteck.116</title>
			<desc>Feature/YourFeature</desc>
			<v:userDefs>
				<v:ud v:nameU="visVersion" v:val="VT0(15):26"/>
			</v:userDefs>
			<v:textBlock v:margins="rect(4,4,4,4)" v:tabSpace="42.5197"/>
			<v:textRect cx="102.756" cy="230.607" width="205.52" height="18.9921"/>
			<rect x="0" y="221.11" width="205.512" height="18.9921" class="st3"/>
			<text x="10.76" y="236.01" class="st4" v:langID="1031"><v:paragraph v:horizAlign="1"/><v:tabList/>Feature/YourFeature</text>		</g>
		<g id="shape124-20" v:mID="124" v:groupContext="shape" transform="translate(222.986,-30.3465)">
			<title>Rechteck.124</title>
			<desc>Your local Commits</desc>
			<v:userDefs>
				<v:ud v:nameU="visVersion" v:val="VT0(15):26"/>
			</v:userDefs>
			<v:textBlock v:margins="rect(4,4,4,4)" v:tabSpace="42.5197"/>
			<v:textRect cx="102.756" cy="225.929" width="205.52" height="28.3464"/>
			<rect x="0" y="211.756" width="205.512" height="28.3464" class="st8"/>
			<text x="14.93" y="231.33" class="st4" v:langID="1031"><v:paragraph v:horizAlign="1"/><v:tabList/>Your local Commits</text>		</g>
		<g id="shape119-23" v:mID="119" v:groupContext="shape" v:layerMember="0" transform="translate(150.576,-153.063)">
			<title>Dynamischer Verbinder.119</title>
			<path d="M0 240.1 L86.13 240.1 A20.1734 20.1734 0 0 1 106.3 260.28 L106.3 260.28 A20.1734 20.1734 -180 0 0 126.47 280.45
						 L191.34 280.45" class="st9"/>
		</g>
		<g id="shape131-26" v:mID="131" v:groupContext="shape" transform="translate(341.915,-111.299)">
			<title>Rechteck.131</title>
			<v:userDefs>
				<v:ud v:nameU="visVersion" v:val="VT0(15):26"/>
			</v:userDefs>
			<rect x="0" y="237.268" width="358.583" height="2.83465" class="st10"/>
		</g>
		<g id="shape122-28" v:mID="122" v:groupContext="shape" transform="translate(449.976,-103.22)">
			<title>Kreis.122</title>
			<v:userDefs>
				<v:ud v:nameU="visVersion" v:val="VT0(15):26"/>
			</v:userDefs>
			<path d="M0 230.61 A9.49606 9.49606 0 1 1 18.99 230.61 A9.49606 9.49606 0 0 1 0 230.61 Z" class="st11"/>
		</g>
		<g id="shape121-30" v:mID="121" v:groupContext="shape" transform="translate(402.636,-103.22)">
			<title>Kreis.121</title>
			<v:userDefs>
				<v:ud v:nameU="visVersion" v:val="VT0(15):26"/>
			</v:userDefs>
			<path d="M0 230.61 A9.49606 9.49606 0 1 1 18.99 230.61 A9.49606 9.49606 0 0 1 0 230.61 Z" class="st11"/>
		</g>
		<g id="shape120-32" v:mID="120" v:groupContext="shape" transform="translate(353.29,-103.22)">
			<title>Kreis.120</title>
			<v:userDefs>
				<v:ud v:nameU="visVersion" v:val="VT0(15):26"/>
			</v:userDefs>
			<path d="M0 230.61 A9.49606 9.49606 0 1 1 18.99 230.61 A9.49606 9.49606 0 0 1 0 230.61 Z" class="st11"/>
		</g>
		<g id="shape127-34" v:mID="127" v:groupContext="shape" transform="translate(347.584,-96.1336)">
			<title>Quadrat.127</title>
			<v:userDefs>
				<v:ud v:nameU="visVersion" v:val="VT0(15):26"/>
			</v:userDefs>
			<g id="shadow127-35" v:groupContext="shadow" v:shadowOffsetX="0.345598" v:shadowOffsetY="-1.97279" v:shadowType="1"
					transform="matrix(1,0,0,1,0.345598,1.97279)" class="st12">
				<path d="M0 240.1 L31.18 240.1 L31.18 208.92 L0 208.92 L0 240.1 Z" class="st13"/>
			</g>
			<path d="M0 240.1 L31.18 240.1 L31.18 208.92 L0 208.92 L0 240.1 Z" class="st14"/>
		</g>
		<g id="shape128-39" v:mID="128" v:groupContext="shape" transform="translate(395.773,-96.1336)">
			<title>Quadrat.128</title>
			<v:userDefs>
				<v:ud v:nameU="visVersion" v:val="VT0(15):26"/>
			</v:userDefs>
			<g id="shadow128-40" v:groupContext="shadow" v:shadowOffsetX="0.345598" v:shadowOffsetY="-1.97279" v:shadowType="1"
					transform="matrix(1,0,0,1,0.345598,1.97279)" class="st12">
				<path d="M0 240.1 L31.18 240.1 L31.18 208.92 L0 208.92 L0 240.1 Z" class="st13"/>
			</g>
			<path d="M0 240.1 L31.18 240.1 L31.18 208.92 L0 208.92 L0 240.1 Z" class="st14"/>
		</g>
		<g id="shape125-44" v:mID="125" v:groupContext="shape" transform="translate(443.962,-96.1336)">
			<title>Quadrat</title>
			<v:userDefs>
				<v:ud v:nameU="visVersion" v:val="VT0(15):26"/>
			</v:userDefs>
			<g id="shadow125-45" v:groupContext="shadow" v:shadowOffsetX="0.345598" v:shadowOffsetY="-1.97279" v:shadowType="1"
					transform="matrix(1,0,0,1,0.345598,1.97279)" class="st12">
				<path d="M0 240.1 L31.18 240.1 L31.18 208.92 L0 208.92 L0 240.1 Z" class="st13"/>
			</g>
			<path d="M0 240.1 L31.18 240.1 L31.18 208.92 L0 208.92 L0 240.1 Z" class="st14"/>
		</g>
		<g id="shape77-49" v:mID="77" v:groupContext="shape" transform="translate(173.799,-143.567)">
			<title>Kreis.77</title>
			<v:userDefs>
				<v:ud v:nameU="visVersion" v:val="VT0(15):26"/>
			</v:userDefs>
			<path d="M0 230.61 A9.49606 9.49606 0 1 1 18.99 230.61 A9.49606 9.49606 0 0 1 0 230.61 Z" class="st11"/>
		</g>
	</g>
</svg>
