<?xml version="1.0" encoding="UTF-8" standalone="no"?>
<!DOCTYPE svg PUBLIC "-//W3C//DTD SVG 1.1//EN" "http://www.w3.org/Graphics/SVG/1.1/DTD/svg11.dtd">
<!-- Generiert durch Microsoft Visio, SVG Export repo-rebase2.svg Page-1 -->
<svg xmlns="http://www.w3.org/2000/svg" xmlns:xlink="http://www.w3.org/1999/xlink" xmlns:ev="http://www.w3.org/2001/xml-events"
		xmlns:v="http://schemas.microsoft.com/visio/2003/SVGExtensions/" width="11.0169in" height="3.68931in"
		viewBox="0 0 793.215 265.63" xml:space="preserve" color-interpolation-filters="sRGB" class="st13">
	<v:documentProperties v:langID="1031" v:metric="true" v:viewMarkup="false">
		<v:userDefs>
			<v:ud v:nameU="msvNoAutoConnect" v:val="VT0(0):26"/>
			<v:ud v:nameU="visV14CFF" v:prompt="" v:val="VT0(1):26"/>
			<v:ud v:nameU="visFlowchartType" v:prompt="" v:val="VT4(CrossFunctional)"/>
		</v:userDefs>
	</v:documentProperties>

	<style type="text/css">
	<![CDATA[
		.st1 {fill:#ededed;stroke:#a8d08d;stroke-dasharray:6,6;stroke-width:2}
		.st2 {stroke:#9966ff;stroke-width:2.75}
		.st3 {stroke:#ff9900;stroke-width:2.75}
		.st4 {fill:#000000;stroke:#c7c8c8;stroke-width:0.25}
		.st5 {fill:#ededed;stroke:none;stroke-width:0.25}
		.st6 {fill:#000000;font-family:Montserrat;font-size:1.5em}
		.st7 {fill:none;stroke:none;stroke-width:2}
		.st8 {fill:#c9c9c9;stroke:none;stroke-width:0.25}
		.st9 {fill:#a8d08d;stroke:none;stroke-width:2}
		.st10 {fill:#000000;stroke:#ededed;stroke-width:4.5}
		.st11 {fill:#9966ff;stroke:none;stroke-width:2}
		.st12 {fill:#ff9900;stroke:none;stroke-width:2}
		.st13 {fill:none;fill-rule:evenodd;font-size:12px;overflow:visible;stroke-linecap:square;stroke-miterlimit:3}
	]]>
	</style>

	<g v:mID="0" v:index="1" v:groupContext="foregroundPage">
		<v:userDefs>
			<v:ud v:nameU="msvThemeOrder" v:val="VT0(0):26"/>
		</v:userDefs>
		<title>Zeichenblatt-1</title>
		<v:pageProperties v:drawingScale="0.0393701" v:pageScale="0.0393701" v:drawingUnits="24" v:shadowOffsetX="8.50394"
				v:shadowOffsetY="-8.50394"/>
		<v:layer v:name="Verbinder" v:index="0"/>
		<g id="group37-1" transform="translate(272.709,-180.347)" v:mID="37" v:groupContext="group">
			<title>Tabelle.37</title>
		</g>
		<g id="shape74-2" v:mID="74" v:groupContext="shape" transform="translate(30.3465,-79.3782)">
			<title>Rechteck.74</title>
			<v:userDefs>
				<v:ud v:nameU="visVersion" v:val="VT0(15):26"/>
			</v:userDefs>
			<path d="M0 265.63 L732.52 265.63 L732.52 109.72 L0 109.72 L0 265.63 Z" class="st1"/>
		</g>
		<g id="shape157-4" v:mID="157" v:groupContext="shape" v:layerMember="0" transform="translate(159.323,-178.591)">
			<title>Dynamischer Verbinder.157</title>
			<path d="M0 265.63 L88.97 265.63 A28.3465 28.3465 0 0 1 117.32 293.98 L117.32 298.94 A28.3465 28.3465 -180 0 0 145.66
						 327.28 L538 327.28" class="st2"/>
		</g>
		<g id="shape166-7" v:mID="166" v:groupContext="shape" v:layerMember="0" transform="translate(159.323,-178.591)">
			<title>Dynamischer Verbinder</title>
			<path d="M0 265.63 L305.56 265.63 A28.3465 28.3465 0 0 1 333.91 293.98 L333.91 298.94 A28.3465 28.3465 -180 0 0 362.25
						 327.28 L538 327.28" class="st3"/>
		</g>
		<g id="group75-10" transform="translate(272.709,-169.095)" v:mID="75" v:groupContext="group">
			<title>Tabelle.75</title>
		</g>
		<g id="shape76-11" v:mID="76" v:groupContext="shape" transform="translate(159.323,-177.173)">
			<title>Rechteck.76</title>
			<v:userDefs>
				<v:ud v:nameU="visVersion" v:val="VT0(15):26"/>
			</v:userDefs>
			<rect x="0" y="262.795" width="538" height="2.83465" class="st4"/>
		</g>
		<g id="shape80-13" v:mID="80" v:groupContext="shape" transform="translate(53.0236,-169.095)">
			<title>Rechteck.80</title>
			<desc>Master</desc>
			<v:userDefs>
				<v:ud v:nameU="visVersion" v:val="VT0(15):26"/>
			</v:userDefs>
			<v:textBlock v:margins="rect(4,4,4,4)" v:tabSpace="42.5197"/>
			<v:textRect cx="49.6063" cy="256.134" width="99.22" height="18.9921"/>
			<rect x="0" y="246.638" width="99.2126" height="18.9921" class="st5"/>
			<text x="19.28" y="261.53" class="st6" v:langID="1031"><v:paragraph v:horizAlign="1"/><v:tabList/>Master</text>		</g>
		<g id="shape81-16" v:mID="81" v:groupContext="shape" transform="translate(54.4409,-155.205)">
			<title>Tabelle.81</title>
			<rect x="0" y="218.858" width="676.898" height="46.7717" class="st7"/>
		</g>
		<g id="shape82-18" v:mID="82" v:groupContext="shape" transform="translate(30.3465,-206.937)">
			<title>Tabelle.82</title>
			<desc>YourLocalClone</desc>
			<v:textBlock v:margins="rect(2,2,2,2)" v:tabSpace="42.5197"/>
			<v:textRect cx="366.261" cy="251.457" width="732.53" height="28.3464"/>
			<rect x="0" y="237.284" width="732.522" height="28.3464" class="st8"/>
			<text x="296.23" y="256.86" class="st6" v:langID="1031"><v:paragraph v:horizAlign="1"/><v:tabList/>YourLocalClone</text>		</g>
		<g id="shape83-21" v:mID="83" v:groupContext="shape" transform="translate(311.811,-115.52)">
			<title>Rechteck.83</title>
			<v:userDefs>
				<v:ud v:nameU="visVersion" v:val="VT0(15):26"/>
			</v:userDefs>
			<rect x="0" y="262.795" width="385.512" height="2.83465" class="st4"/>
		</g>
		<g id="shape87-23" v:mID="87" v:groupContext="shape" transform="translate(56.6929,-108.567)">
			<title>Rechteck.87</title>
			<desc>Feature/YourFeature</desc>
			<v:userDefs>
				<v:ud v:nameU="visVersion" v:val="VT0(15):26"/>
			</v:userDefs>
			<v:textBlock v:margins="rect(4,4,4,4)" v:tabSpace="42.5197"/>
			<v:textRect cx="103.173" cy="256.134" width="206.35" height="18.9921"/>
			<rect x="0" y="246.638" width="206.346" height="18.9921" class="st5"/>
			<text x="11.18" y="261.53" class="st6" v:langID="1031"><v:paragraph v:horizAlign="1"/><v:tabList/>Feature/YourFeature</text>		</g>
		<g id="shape88-26" v:mID="88" v:groupContext="shape" transform="translate(54.4409,-93.5514)">
			<title>Tabelle.88</title>
			<rect x="0" y="218.858" width="676.898" height="46.7717" class="st7"/>
		</g>
		<g id="shape92-28" v:mID="92" v:groupContext="shape" transform="translate(30.3465,-30.3465)">
			<title>Rechteck.92</title>
			<desc>Your local Clone</desc>
			<v:userDefs>
				<v:ud v:nameU="visVersion" v:val="VT0(15):26"/>
			</v:userDefs>
			<v:textBlock v:margins="rect(4,4,4,4)" v:tabSpace="42.5197"/>
			<v:textRect cx="85.0394" cy="251.457" width="170.08" height="28.3464"/>
			<rect x="0" y="237.284" width="170.079" height="28.3464" class="st9"/>
			<text x="12.52" y="256.86" class="st6" v:langID="1031"><v:paragraph v:horizAlign="1"/><v:tabList/>Your local Clone</text>		</g>
		<g id="shape149-31" v:mID="149" v:groupContext="shape" transform="translate(432.384,-170.079)">
			<title>Kreis.149</title>
			<v:userDefs>
				<v:ud v:nameU="visVersion" v:val="VT0(15):26"/>
			</v:userDefs>
			<path d="M0 256.13 A9.49606 9.49606 0 1 1 18.99 256.13 A9.49606 9.49606 0 0 1 0 256.13 Z" class="st10"/>
		</g>
		<g id="shape150-33" v:mID="150" v:groupContext="shape" transform="translate(363.016,-170.079)">
			<title>Kreis.150</title>
			<v:userDefs>
				<v:ud v:nameU="visVersion" v:val="VT0(15):26"/>
			</v:userDefs>
			<path d="M0 256.13 A9.49606 9.49606 0 1 1 18.99 256.13 A9.49606 9.49606 0 0 1 0 256.13 Z" class="st10"/>
		</g>
		<g id="shape151-35" v:mID="151" v:groupContext="shape" transform="translate(313.978,-170.079)">
			<title>Kreis.151</title>
			<v:userDefs>
				<v:ud v:nameU="visVersion" v:val="VT0(15):26"/>
			</v:userDefs>
			<path d="M0 256.13 A9.49606 9.49606 0 1 1 18.99 256.13 A9.49606 9.49606 0 0 1 0 256.13 Z" class="st10"/>
		</g>
		<g id="shape84-37" v:mID="84" v:groupContext="shape" transform="translate(536.29,-107.441)">
			<title>Kreis.84</title>
			<v:userDefs>
				<v:ud v:nameU="visVersion" v:val="VT0(15):26"/>
			</v:userDefs>
			<path d="M0 256.13 A9.49606 9.49606 0 1 1 18.99 256.13 A9.49606 9.49606 0 0 1 0 256.13 Z" class="st10"/>
		</g>
		<g id="shape85-39" v:mID="85" v:groupContext="shape" transform="translate(585.637,-107.441)">
			<title>Kreis.85</title>
			<v:userDefs>
				<v:ud v:nameU="visVersion" v:val="VT0(15):26"/>
			</v:userDefs>
			<path d="M0 256.13 A9.49606 9.49606 0 1 1 18.99 256.13 A9.49606 9.49606 0 0 1 0 256.13 Z" class="st10"/>
		</g>
		<g id="shape86-41" v:mID="86" v:groupContext="shape" transform="translate(632.976,-107.441)">
			<title>Kreis.86</title>
			<v:userDefs>
				<v:ud v:nameU="visVersion" v:val="VT0(15):26"/>
			</v:userDefs>
			<path d="M0 256.13 A9.49606 9.49606 0 1 1 18.99 256.13 A9.49606 9.49606 0 0 1 0 256.13 Z" class="st10"/>
		</g>
		<g id="shape77-43" v:mID="77" v:groupContext="shape" transform="translate(172.042,-169.095)">
			<title>Kreis.77</title>
			<v:userDefs>
				<v:ud v:nameU="visVersion" v:val="VT0(15):26"/>
			</v:userDefs>
			<path d="M0 256.13 A9.49606 9.49606 0 1 1 18.99 256.13 A9.49606 9.49606 0 0 1 0 256.13 Z" class="st10"/>
		</g>
		<g id="shape167-45" v:mID="167" v:groupContext="shape" transform="translate(220.685,-30.3465)">
			<title>Rechteck.167</title>
			<desc>Before Rebase</desc>
			<v:userDefs>
				<v:ud v:nameU="visVersion" v:val="VT0(15):26"/>
			</v:userDefs>
			<v:textBlock v:margins="rect(4,4,4,4)" v:tabSpace="42.5197"/>
			<v:textRect cx="85.0394" cy="251.457" width="170.08" height="28.3464"/>
			<rect x="0" y="237.284" width="170.079" height="28.3464" class="st11"/>
			<text x="20.81" y="256.86" class="st6" v:langID="1031"><v:paragraph v:horizAlign="1"/><v:tabList/>Before Rebase</text>		</g>
		<g id="shape168-48" v:mID="168" v:groupContext="shape" transform="translate(411.024,-30.3465)">
			<title>Rechteck.168</title>
			<desc>After Rebase</desc>
			<v:userDefs>
				<v:ud v:nameU="visVersion" v:val="VT0(15):26"/>
			</v:userDefs>
			<v:textBlock v:margins="rect(4,4,4,4)" v:tabSpace="42.5197"/>
			<v:textRect cx="85.0394" cy="251.457" width="170.08" height="28.3464"/>
			<rect x="0" y="237.284" width="170.079" height="28.3464" class="st12"/>
			<text x="27.77" y="256.86" class="st6" v:langID="1031"><v:paragraph v:horizAlign="1"/><v:tabList/>After Rebase</text>		</g>
	</g>
</svg>
