<?xml version="1.0" encoding="UTF-8" standalone="no"?>
<!DOCTYPE svg PUBLIC "-//W3C//DTD SVG 1.1//EN" "http://www.w3.org/Graphics/SVG/1.1/DTD/svg11.dtd">
<!-- Generiert durch Microsoft Visio, SVG Export versioning-release-branch.svg Zeichenblatt-1 -->
<svg xmlns="http://www.w3.org/2000/svg" xmlns:xlink="http://www.w3.org/1999/xlink" xmlns:ev="http://www.w3.org/2001/xml-events"
		xmlns:v="http://schemas.microsoft.com/visio/2003/SVGExtensions/" width="10.2295in" height="3.03609in"
		viewBox="0 0 736.522 218.598" xml:space="preserve" color-interpolation-filters="sRGB" class="st14">
	<v:documentProperties v:langID="1031" v:metric="true" v:viewMarkup="false"/>

	<style type="text/css">
	<![CDATA[
		.st1 {fill:#ededed;stroke:none;stroke-width:2}
		.st2 {fill:#000000;stroke:none;stroke-width:0.25}
		.st3 {fill:#ededed;stroke:none;stroke-width:0.25}
		.st4 {fill:#000000;font-family:Montserrat;font-size:1.5em}
		.st5 {fill:none;stroke:none;stroke-width:2}
		.st6 {fill:#c9c9c9;stroke:none;stroke-width:0.25}
		.st7 {fill:#000000;stroke:#c7c8c8;stroke-width:0.25}
		.st8 {stroke:#000000;stroke-width:2.75}
		.st9 {fill:#33cccc;stroke:none;stroke-width:2}
		.st10 {fill:#000000;stroke:#ededed;stroke-width:4.5}
		.st11 {fill:none;stroke:#9966ff;stroke-dasharray:14,10;stroke-width:2}
		.st12 {fill:#9966ff;stroke:none;stroke-width:2}
		.st13 {fill:none;stroke:#33cccc;stroke-dasharray:14,10;stroke-width:2}
		.st14 {fill:none;fill-rule:evenodd;font-size:12px;overflow:visible;stroke-linecap:square;stroke-miterlimit:3}
	]]>
	</style>

	<g v:mID="0" v:index="1" v:groupContext="foregroundPage">
		<title>Zeichenblatt-1</title>
		<v:pageProperties v:drawingScale="0.0393701" v:pageScale="0.0393701" v:drawingUnits="24" v:shadowOffsetX="8.50394"
				v:shadowOffsetY="-8.50394"/>
		<v:layer v:name="Verbinder" v:index="0"/>
		<g id="shape97-1" v:mID="97" v:groupContext="shape" transform="translate(2,-44.5197)">
			<title>Rechteck.97</title>
			<v:userDefs>
				<v:ud v:nameU="visVersion" v:val="VT0(15):26"/>
			</v:userDefs>
			<rect x="0" y="46.5197" width="732.522" height="172.079" class="st1"/>
		</g>
		<g id="group98-3" transform="translate(244.362,-134.575)" v:mID="98" v:groupContext="group">
			<title>Tabelle.98</title>
		</g>
		<g id="shape99-4" v:mID="99" v:groupContext="shape" transform="translate(130.976,-142.654)">
			<title>Rechteck.99</title>
			<v:userDefs>
				<v:ud v:nameU="visVersion" v:val="VT0(15):26"/>
			</v:userDefs>
			<rect x="0" y="215.764" width="538" height="2.83465" class="st2"/>
		</g>
		<g id="shape103-6" v:mID="103" v:groupContext="shape" transform="translate(24.6772,-134.575)">
			<title>Rechteck.103</title>
			<desc>Master</desc>
			<v:userDefs>
				<v:ud v:nameU="visVersion" v:val="VT0(15):26"/>
			</v:userDefs>
			<v:textBlock v:margins="rect(4,4,4,4)" v:tabSpace="42.5197"/>
			<v:textRect cx="49.6063" cy="209.102" width="99.22" height="18.9921"/>
			<rect x="0" y="199.606" width="99.2126" height="18.9921" class="st3"/>
			<text x="19.28" y="214.5" class="st4" v:langID="1031"><v:paragraph v:horizAlign="1"/><v:tabList/>Master</text>		</g>
		<g id="shape104-9" v:mID="104" v:groupContext="shape" transform="translate(26.0945,-120.685)">
			<title>Tabelle.104</title>
			<rect x="0" y="171.827" width="676.898" height="46.7717" class="st5"/>
		</g>
		<g id="shape105-11" v:mID="105" v:groupContext="shape" transform="translate(2,-188.252)">
			<title>Tabelle.105</title>
			<desc>SpongeDocs</desc>
			<v:textBlock v:margins="rect(2,2,2,2)" v:tabSpace="42.5197"/>
			<v:textRect cx="366.261" cy="204.425" width="732.53" height="28.3464"/>
			<rect x="0" y="190.252" width="732.522" height="28.3464" class="st6"/>
			<text x="309.99" y="209.83" class="st4" v:langID="1031"><v:paragraph v:horizAlign="1"/><v:tabList/>SpongeDocs</text>		</g>
		<g id="shape106-14" v:mID="106" v:groupContext="shape" transform="translate(299.39,-81.0002)">
			<title>Rechteck.106</title>
			<v:userDefs>
				<v:ud v:nameU="visVersion" v:val="VT0(15):26"/>
			</v:userDefs>
			<rect x="0" y="215.764" width="196.673" height="2.83465" class="st7"/>
		</g>
		<g id="shape110-16" v:mID="110" v:groupContext="shape" transform="translate(28.3465,-72.8661)">
			<title>Rechteck.110</title>
			<desc>Feature/foo</desc>
			<v:userDefs>
				<v:ud v:nameU="visVersion" v:val="VT0(15):26"/>
			</v:userDefs>
			<v:textBlock v:margins="rect(4,4,4,4)" v:tabSpace="42.5197"/>
			<v:textRect cx="68.3228" cy="209.102" width="136.65" height="18.9921"/>
			<rect x="0" y="199.606" width="136.646" height="18.9921" class="st3"/>
			<text x="16.89" y="214.5" class="st4" v:langID="1031"><v:paragraph v:horizAlign="1"/><v:tabList/>Feature/foo</text>		</g>
		<g id="shape111-19" v:mID="111" v:groupContext="shape" transform="translate(26.0945,-59.0317)">
			<title>Tabelle.111</title>
			<rect x="0" y="171.827" width="676.898" height="46.7717" class="st5"/>
		</g>
		<g id="shape112-21" v:mID="112" v:groupContext="shape" v:layerMember="0" transform="translate(123.89,-144.071)">
			<title>Dynamischer Verbinder.112</title>
			<path d="M0 218.6 L124.14 218.6 A28.3465 28.3465 0 0 1 152.49 246.94 L152.49 251.91 A28.3465 28.3465 -180 0 0 180.83
						 280.25 L372.17 280.25" class="st8"/>
		</g>
		<g id="shape114-24" v:mID="114" v:groupContext="shape" transform="translate(2,-2)">
			<title>Rechteck.114</title>
			<desc>Commits targeting 3.0.0 release</desc>
			<v:userDefs>
				<v:ud v:nameU="visVersion" v:val="VT0(15):26"/>
			</v:userDefs>
			<v:textBlock v:margins="rect(4,4,4,4)" v:tabSpace="42.5197"/>
			<v:textRect cx="147.819" cy="204.425" width="295.64" height="28.3464"/>
			<rect x="0" y="190.252" width="295.638" height="28.3464" class="st9"/>
			<text x="5.46" y="209.83" class="st4" v:langID="1031"><v:paragraph v:horizAlign="1"/><v:tabList/>Commits targeting 3.0.0 release</text>		</g>
		<g id="shape100-27" v:mID="100" v:groupContext="shape" transform="translate(143.695,-134.575)">
			<title>Kreis.100</title>
			<v:userDefs>
				<v:ud v:nameU="visVersion" v:val="VT0(15):26"/>
			</v:userDefs>
			<path d="M0 209.1 A9.49606 9.49606 0 1 1 18.99 209.1 A9.49606 9.49606 0 0 1 0 209.1 Z" class="st10"/>
		</g>
		<g id="shape117-29" v:mID="117" v:groupContext="shape" transform="translate(127.559,-149.732)">
			<title>Rechteck.117</title>
			<desc>3.0.0</desc>
			<v:userDefs>
				<v:ud v:nameU="visVersion" v:val="VT0(15):26"/>
			</v:userDefs>
			<v:textBlock v:margins="rect(4,4,4,4)" v:tabSpace="42.5197"/>
			<v:textRect cx="27.4888" cy="205.13" width="54.98" height="26.9372"/>
			<rect x="0" y="191.661" width="54.9776" height="26.9372" class="st5"/>
			<text x="6.28" y="210.53" class="st4" v:langID="1031"><v:paragraph v:horizAlign="1"/><v:tabList/>3.0.0</text>		</g>
		<g id="shape118-32" v:mID="118" v:groupContext="shape" transform="translate(127.559,-134.575)">
			<title>Rechteck.118</title>
			<v:userDefs>
				<v:ud v:nameU="visVersion" v:val="VT0(15):26"/>
			</v:userDefs>
			<path d="M0 218.6 L54.98 218.6 L54.98 179.6 L0 179.6 L0 218.6 Z" class="st11"/>
		</g>
		<g id="shape120-34" v:mID="120" v:groupContext="shape" transform="translate(582.818,-150.716)">
			<title>Rechteck.120</title>
			<desc>3.1.0</desc>
			<v:userDefs>
				<v:ud v:nameU="visVersion" v:val="VT0(15):26"/>
			</v:userDefs>
			<v:textBlock v:margins="rect(4,4,4,4)" v:tabSpace="42.5197"/>
			<v:textRect cx="27.4888" cy="205.13" width="54.98" height="26.9372"/>
			<rect x="0" y="191.661" width="54.9776" height="26.9372" class="st5"/>
			<text x="9.01" y="210.53" class="st4" v:langID="1031"><v:paragraph v:horizAlign="1"/><v:tabList/>3.1.0</text>		</g>
		<g id="shape121-37" v:mID="121" v:groupContext="shape" transform="translate(582.818,-135.559)">
			<title>Rechteck.121</title>
			<v:userDefs>
				<v:ud v:nameU="visVersion" v:val="VT0(15):26"/>
			</v:userDefs>
			<path d="M0 218.6 L54.98 218.6 L54.98 179.6 L0 179.6 L0 218.6 Z" class="st11"/>
		</g>
		<g id="shape123-39" v:mID="123" v:groupContext="shape" v:layerMember="0" transform="translate(496.063,-82.4175)">
			<title>Dynamischer Verbinder.123</title>
			<path d="M0 218.6 L24.32 218.6 A24.3243 24.3243 -180 0 0 48.65 194.27 L48.65 185.29 A28.3465 28.3465 0 0 1 77 156.94
						 L172.91 156.94" class="st8"/>
		</g>
		<g id="shape127-42" v:mID="127" v:groupContext="shape" transform="translate(306.448,-2)">
			<title>Rechteck.127</title>
			<desc>Targeted API version</desc>
			<v:userDefs>
				<v:ud v:nameU="visVersion" v:val="VT0(15):26"/>
			</v:userDefs>
			<v:textBlock v:margins="rect(4,4,4,4)" v:tabSpace="42.5197"/>
			<v:textRect cx="98.3366" cy="204.425" width="196.68" height="28.3464"/>
			<rect x="0" y="190.252" width="196.673" height="28.3464" class="st12"/>
			<text x="6.16" y="209.83" class="st4" v:langID="1031"><v:paragraph v:horizAlign="1"/><v:tabList/>Targeted API version</text>		</g>
		<g id="shape144-45" v:mID="144" v:groupContext="shape" transform="translate(401.394,-72.8661)">
			<title>Kreis.144</title>
			<v:userDefs>
				<v:ud v:nameU="visVersion" v:val="VT0(15):26"/>
			</v:userDefs>
			<path d="M0 209.1 A9.49606 9.49606 0 1 1 18.99 209.1 A9.49606 9.49606 0 0 1 0 209.1 Z" class="st10"/>
		</g>
		<g id="shape145-47" v:mID="145" v:groupContext="shape" transform="translate(434.551,-72.8661)">
			<title>Kreis.145</title>
			<v:userDefs>
				<v:ud v:nameU="visVersion" v:val="VT0(15):26"/>
			</v:userDefs>
			<path d="M0 209.1 A9.49606 9.49606 0 1 1 18.99 209.1 A9.49606 9.49606 0 0 1 0 209.1 Z" class="st10"/>
		</g>
		<g id="shape146-49" v:mID="146" v:groupContext="shape" transform="translate(389.764,-65.7795)">
			<title>Rechteck.146</title>
			<v:userDefs>
				<v:ud v:nameU="visVersion" v:val="VT0(15):26"/>
			</v:userDefs>
			<path d="M0 218.6 L77.95 218.6 L77.95 184.68 L0 184.68 L0 218.6 Z" class="st13"/>
		</g>
		<g id="shape119-51" v:mID="119" v:groupContext="shape" transform="translate(598.954,-135.559)">
			<title>Kreis.119</title>
			<v:userDefs>
				<v:ud v:nameU="visVersion" v:val="VT0(15):26"/>
			</v:userDefs>
			<path d="M0 209.1 A9.49606 9.49606 0 1 1 18.99 209.1 A9.49606 9.49606 0 0 1 0 209.1 Z" class="st10"/>
		</g>
	</g>
</svg>
